<svg width="1254" height="785" viewBox="0 0 1254 785" fill="none" xmlns="http://www.w3.org/2000/svg">
<path d="M2 147L1253.25 160.629V699.548L2 704.091V147Z" fill="#BDE19E"/>
<path d="M111.162 197.904L64.8246 165.219L0.968601 145.851V0H1252.77V346.881L1153.13 355.697L1041.93 283.846L935.689 298.043L907.614 355.697L851.465 376.411L840.455 426.384L780.452 438.31L714.394 385.497L595.917 400.112L577.699 341.028L425.223 268.091L322.252 296.614L262.449 202.806L186.409 170.939L111.162 197.904Z" fill="#D8F3C0"/>
<path d="M126.762 475.118L0.968601 458V784.806H1252.77V520.467L1146.17 588.289L1049.14 552.745L1003.99 568.27L959.638 628.328L762.409 687.569L682.804 638.542L566.368 650.799L493.651 693.103L346.672 669.82L278.962 597.131L187.032 568.27L126.762 475.118Z" fill="#9EBB84"/>
</svg>
