<svg width="20" height="24" viewBox="0 0 20 24" fill="none" xmlns="http://www.w3.org/2000/svg">
<path d="M4.25335 7.51124L4.24046 7.35236C4.15585 6.30965 4.52829 5.39407 4.89595 4.76126C5.07322 4.45614 5.25474 4.20742 5.39675 4.02991L4.85046 3.23262C4.77571 3.12353 4.67418 3.06517 4.58492 3.049C4.50192 3.03397 4.42205 3.05231 4.35043 3.11678C3.58399 3.80676 2.4013 5.24599 2.27037 7.66043C2.2649 7.76132 2.30065 7.87136 2.38003 7.96604L12.9632 20.5884C13.0775 20.7247 13.2555 20.79 13.4308 20.76L15.2265 20.4523C15.3812 20.4258 15.5144 20.3281 15.5864 20.1887L16.0307 20.4179L15.5864 20.1887L16.1615 19.0736M4.25335 7.51124L16.1616 19.0734L16.1615 19.0736M4.25335 7.51124L4.35581 7.63334L12.9675 17.8954C13.3921 18.4013 14.0141 18.4942 14.5439 18.3949C15.07 18.2964 15.5866 18.0011 15.9404 17.6014C15.9765 17.5605 16.0127 17.5239 16.0488 17.4914C16.0836 17.6951 16.1192 17.9144 16.1466 18.1302C16.1772 18.3712 16.196 18.595 16.1946 18.7789C16.194 18.8705 16.1883 18.9436 16.1793 18.9989C16.1714 19.0482 16.1629 19.0699 16.1616 19.0733C16.1614 19.0738 16.1613 19.0739 16.1615 19.0736M4.25335 7.51124L16.1615 19.0736M16.133 16.3352C15.739 16.4341 15.4273 16.6722 15.1915 16.9386C14.9835 17.1736 14.6649 17.3549 14.3599 17.412C14.0587 17.4684 13.8538 17.3959 13.7336 17.2525L5.43929 7.36881L8.98528 4.31748L16.7798 14.6963C16.904 14.8616 16.9136 15.0862 16.804 15.2615L16.133 16.3352ZM6.19421 4.63399C6.22554 4.59529 6.25402 4.56139 6.27882 4.53261L7.40776 4.35566L5.38538 6.09593C5.48333 5.79072 5.61766 5.50966 5.76061 5.26362C5.91529 4.99737 6.07446 4.78194 6.19421 4.63399Z" fill="#D48051" stroke="#3A332D"/>
</svg>
