<svg width="27" height="30" viewBox="0 0 27 30" fill="none" xmlns="http://www.w3.org/2000/svg">
<path d="M9.3144 27.5707C9.83167 28.6098 10.8661 29.1271 12.4178 29.6443C13.9695 30.1615 15.004 29.0516 15.004 27.5707C15.004 26.5433 14.1145 25.5341 12.004 25.0952C9.34685 24.5426 8.79713 26.5315 9.3144 27.5707Z" fill="#314B6C"/>
<path d="M25.5 12.8262C25.5 13.2205 25.5011 13.5889 25.5021 13.9333C25.507 15.6135 25.5103 16.7214 25.3782 17.4704C25.301 17.9082 25.1879 18.1474 25.0583 18.2908C24.9377 18.4243 24.7532 18.5291 24.4059 18.5872C24.0475 18.6471 23.5633 18.6494 22.8918 18.6085C22.3709 18.5767 21.7632 18.521 21.0433 18.455C20.8403 18.4364 20.6282 18.4169 20.4067 18.397C18.4008 18.2163 15.6799 18 12 18C9.85192 18 8.01974 18.2165 6.50076 18.396L6.48039 18.3984C4.93127 18.5814 3.77274 18.7137 2.88385 18.5855C2.4531 18.5234 2.11363 18.4027 1.83872 18.2139C1.56652 18.0269 1.32879 17.7535 1.13034 17.3406C0.721523 16.49 0.5 15.0943 0.5 12.8262C0.5 10.5589 0.655987 9.02552 0.968834 7.98556C1.27496 6.96795 1.71586 6.46877 2.27786 6.19167C2.88126 5.89416 3.69615 5.81314 4.84585 5.81141C5.22148 5.81085 5.63378 5.81879 6.07831 5.82736C6.94617 5.84409 7.93686 5.86318 9.01724 5.82592C10.4714 5.77577 11.7996 5.71975 13.0149 5.66848C14.8441 5.59132 16.4177 5.52495 17.7805 5.50562C20.0547 5.47336 21.6507 5.57607 22.7819 5.9466C23.8661 6.30176 24.5139 6.89881 24.9177 7.92297C25.3409 8.99664 25.5 10.5516 25.5 12.8262Z" fill="#E8E1C1" stroke="#413E30"/>
<path d="M9.50403 26.676C9.50403 27.6516 9.70805 27.9933 9.90404 28.1295C10.1327 28.2885 10.5638 28.336 11.4187 28.1879C11.837 28.1154 12.1428 28.048 12.3719 27.9709C12.5991 27.8944 12.7178 27.8189 12.7876 27.7498C12.9143 27.6242 13.004 27.3974 13.004 26.676C13.004 26.4737 12.9752 26.3354 12.9313 26.2332C12.8894 26.1357 12.8232 26.0464 12.7088 25.9559C12.4555 25.7557 12.002 25.5746 11.1837 25.3618C10.6755 25.2297 10.3177 25.1619 10.0615 25.1512C9.80626 25.1405 9.72916 25.19 9.70591 25.2094C9.67843 25.2322 9.61425 25.3064 9.56715 25.5642C9.52044 25.8198 9.50403 26.1761 9.50403 26.676Z" fill="#90B4E2" stroke="#314B6C"/>
<path d="M14.3488 0.997879C14.3487 0.659124 11.0676 -0.184677 11.0676 0.315222C11.0676 0.815168 10.3489 20.9979 10.3489 20.9979C10.3489 20.9979 13.349 21.9979 14.3489 22.4979C14.9814 22.8142 14.349 1.49788 14.3488 0.997879Z" fill="#314B6C"/>
<path d="M12.9913 11.4823C13.0321 6.84346 13.0105 2.12654 13.0051 0.949788C12.937 0.926116 12.8512 0.899756 12.748 0.871741C12.3977 0.776643 11.9184 0.681443 11.4322 0.610864C10.9437 0.539971 10.4719 0.497391 10.133 0.500123C10.0824 0.500531 10.0376 0.501956 9.99834 0.504081C9.97256 1.75795 9.86303 6.35001 9.75387 10.8801C9.69137 13.4739 9.62887 16.052 9.58199 17.9817L9.52535 20.3109L9.51614 20.6889C9.81677 20.697 10.2248 20.7129 10.6647 20.7443C11.1104 20.7762 11.5962 20.8244 12.0394 20.8983C12.2591 20.9349 12.4803 20.9796 12.6868 21.0359C12.6945 20.9761 12.7022 20.9098 12.7098 20.8371C12.7649 20.3141 12.8112 19.5384 12.8494 18.5831C12.9256 16.6763 12.9683 14.0947 12.9913 11.4823ZM9.79468 0.530803C9.79473 0.530833 9.79593 0.530462 9.79812 0.529603C9.79572 0.530344 9.79462 0.530774 9.79468 0.530803Z" fill="#90B4E2" stroke="#314B6C"/>
</svg>
