<svg width="1326" height="410" viewBox="0 0 1326 410" fill="none" xmlns="http://www.w3.org/2000/svg">
<path d="M1323.12 295.857C1323.09 294.211 1322.01 292.916 1320.93 291.833C1320.58 291.479 1320.38 290.976 1320.05 290.602C1319.49 289.988 1318.92 289.709 1318.26 289.284C1318.05 289.153 1317.77 288.849 1317.54 288.806C1317.25 288.754 1316.76 288.775 1316.59 288.516C1316.27 288 1315.1 287.857 1314.59 287.668C1313.74 287.359 1312.89 286.957 1312.46 286.186C1312.26 285.831 1312.15 285.715 1312.1 285.284C1312.06 284.925 1311.7 284.708 1311.68 284.311C1311.67 283.897 1311.42 283.993 1311.29 283.684C1311.09 283.178 1310.82 282.719 1310.7 282.178C1310.48 281.201 1309.78 280.327 1309.35 279.401C1309.18 279.026 1309.03 279.003 1308.8 278.703C1308.59 278.442 1308.79 278.173 1308.44 277.958C1307.99 277.682 1307.76 277.114 1307.45 276.726C1306.16 275.116 1303.47 275.107 1301.67 274.475C1300.43 274.043 1299.11 273.312 1298.06 272.498C1297.69 272.21 1297.07 272.226 1296.75 271.965C1296.35 271.65 1295.7 271.098 1295.45 270.663C1294.99 269.862 1294.68 268.952 1294.11 268.192C1293.43 267.29 1293.54 265.702 1293.34 264.592C1293.06 263.084 1292.78 261.657 1291.77 260.482C1291.46 260.118 1290.65 259.909 1290.19 259.744C1289.55 259.515 1288.71 259.225 1288.18 258.795C1287.84 258.514 1287.28 258.285 1287.01 257.987C1286.5 257.429 1286.09 256.722 1285.63 256.175C1285.4 255.899 1285.29 255.311 1285.14 254.968C1284.79 254.154 1284.56 253.319 1284.15 252.512C1283.76 251.73 1283.47 251.167 1283.31 250.316C1282.95 248.322 1282.5 246.244 1281.61 244.386C1281.08 243.276 1280.23 241.695 1280.07 240.464C1280.01 240.069 1279.89 239.881 1279.71 239.523C1279.29 238.684 1278.61 237.541 1277.83 236.982C1276.84 236.267 1275.73 235.571 1274.97 234.723C1274.37 234.043 1273.56 233.036 1273.25 232.15C1272.72 230.609 1272.38 229.018 1272.29 227.381C1272.25 226.674 1272.29 225.955 1272.29 225.247C1272.29 224.542 1272.4 223.522 1272.12 222.863C1271.94 222.435 1271.44 221.95 1271.08 221.663C1270.56 221.236 1270.07 220.773 1269.55 220.329C1268.98 219.834 1268.35 219.463 1267.81 218.941C1267.64 218.779 1267.39 218.727 1267.24 218.596C1267.01 218.384 1266.89 218.062 1266.57 217.921C1266.23 217.77 1266.11 217.365 1265.81 217.152C1265.22 216.747 1265.24 216.431 1265.23 215.725C1265.22 214.977 1265.09 214.238 1265.09 213.474C1265.09 212.799 1264.74 212.673 1264.28 212.227C1263.68 211.654 1262.48 211.659 1261.77 211.207C1261.09 210.777 1260.85 210.464 1260.29 209.873C1259.68 209.231 1259.3 208.502 1258.95 207.677C1258.52 206.681 1257.88 205.775 1257.44 204.791C1257.29 204.472 1257.38 204.136 1257.18 203.834C1256.91 203.396 1256.48 202.752 1256.35 202.257C1256.19 201.608 1255.77 200.908 1255.77 200.241C1255.77 199.392 1256.59 198.871 1257.12 198.343C1257.93 197.535 1258.87 196.616 1259.27 195.503C1259.43 195.061 1259.49 193.455 1259.15 193.15C1258.62 192.665 1258.11 192.047 1257.61 191.519C1256.72 190.587 1255.75 189.687 1254.78 188.828C1254.41 188.492 1254.24 188.135 1253.8 187.911C1253.5 187.763 1253.29 187.42 1253.12 187.142C1252.82 186.623 1251.67 185.381 1251.18 185.165C1250.73 184.963 1250.21 184.637 1249.98 184.177M1250.98 184.74C1249.33 183.299 1247.61 181.672 1245.33 181.672C1244.45 181.672 1243.6 181.427 1242.76 181.427C1242.06 181.427 1241.17 181.359 1240.55 181.031C1239.16 180.301 1238.1 180.444 1237.08 179C1236.62 178.334 1235.97 177.786 1235.58 177.071C1235.14 176.277 1235.03 175.153 1234.75 174.283C1234.57 173.7 1234.29 172.768 1234.29 172.163C1234.29 171.502 1233.54 170.867 1233 170.629C1231.63 170.019 1230.15 170.296 1228.73 170.043C1227.58 169.839 1226.39 170.092 1225.28 169.586C1225.03 169.475 1224.8 169.348 1224.54 169.273C1224.3 169.203 1224.4 168.596 1224.32 168.421C1224.03 167.773 1223.96 167.089 1223.64 166.457C1223.29 165.75 1222.41 165.967 1221.71 165.967C1220.93 165.967 1220.16 166.241 1219.39 166.335C1218.33 166.463 1217.28 166.541 1216.22 166.675C1215.58 166.757 1214.91 166.703 1214.26 166.703C1212.99 166.703 1212.08 165.882 1210.87 165.612C1209.62 165.336 1208.27 165.476 1206.99 165.476C1205.51 165.476 1204.09 165.44 1202.63 165.721C1201.18 166.002 1200.03 166.634 1199.1 167.807C1198.33 168.783 1197.52 169.687 1196.74 170.677C1195.98 171.649 1194.67 172.236 1193.74 173.029C1193.28 173.414 1192.8 173.803 1192.3 174.126C1191.66 174.547 1190.72 175.091 1189.99 175.319C1189.01 175.631 1188.21 176.519 1187.11 176.519C1186.49 176.519 1186.56 175.948 1186.31 175.462C1185.94 174.746 1185.82 173.915 1185.43 173.206C1184.95 172.35 1182.62 174.509 1182.32 175.046C1181.56 176.402 1181.05 177.01 1179.39 177.01C1178.37 177.01 1177.86 176.837 1177.1 176.144C1176 175.151 1174.77 175.543 1173.55 175.019C1172.54 174.584 1172.73 172.006 1172.82 171.127C1172.87 170.619 1174.47 167.306 1173.46 167.071C1172.66 166.883 1172.2 166.66 1171.46 167.146C1170.86 167.544 1170.35 167.978 1169.9 168.543C1169.59 168.926 1169.51 169.418 1169.2 169.798C1168.15 171.122 1166.88 172.705 1165.52 173.649C1165.16 173.892 1164.91 174.163 1164.53 174.372C1164.22 174.547 1163.78 174.705 1163.61 175.046M1163.56 174.623C1162.78 174.98 1161.93 175.48 1161.06 175.48H1160.1C1159.71 175.48 1159.31 175.546 1158.91 175.546C1158.2 175.546 1157.49 175.875 1156.77 175.875C1155.72 175.875 1154.66 176.236 1153.61 176.34C1153.43 176.358 1153.26 176.437 1153.09 176.505C1152.93 176.574 1152.85 176.733 1152.68 176.783C1152.41 176.864 1152.12 177.129 1151.94 177.355C1151.64 177.745 1151.23 178.057 1151.03 178.512C1150.83 178.976 1150.76 179.45 1150.6 179.925C1150.47 180.311 1150.3 180.716 1150.15 181.096C1149.95 181.584 1149.81 182.103 1149.6 182.583C1149.44 182.941 1149.14 183.23 1148.93 183.557C1148.59 184.084 1148.34 184.418 1147.88 184.838C1147.06 185.576 1146.02 186.096 1144.97 186.457C1144.45 186.637 1143.93 186.853 1143.39 186.962C1142.8 187.081 1142.24 187.319 1141.63 187.343C1141.23 187.358 1140.82 187.343 1140.42 187.343C1139.85 187.343 1139.29 187.36 1138.72 187.412C1138.43 187.438 1138.24 187.608 1137.98 187.672C1137.61 187.764 1137.4 188.03 1137.13 188.251C1136.9 188.438 1136.78 188.682 1136.57 188.873C1136.33 189.092 1136.09 189.319 1135.88 189.569C1135.45 190.077 1135.01 190.538 1134.49 190.953C1134 191.345 1133.64 191.835 1133.12 192.205C1132.83 192.416 1132.5 192.617 1132.22 192.846C1131.99 193.04 1131.52 192.944 1131.23 192.944C1130.58 192.944 1130.06 192.236 1129.63 191.809C1128.98 191.169 1128.8 190.423 1128.4 189.62C1128.07 188.943 1127.77 188.232 1127.4 187.573C1126.99 186.847 1126.43 186.281 1125.9 185.658C1125.46 185.15 1125.16 184.641 1124.42 184.641C1123.82 184.641 1123.36 184.621 1122.82 184.908C1121.82 185.446 1121.13 186.276 1120.64 187.277L1120.62 187.305C1120.35 187.858 1120.13 188.321 1120.13 188.954C1120.13 189.637 1119.94 190.216 1119.76 190.869C1119.42 192.128 1118.64 193.221 1118.15 194.416C1117.93 194.964 1117.75 195.469 1117.44 195.976C1117.22 196.336 1117.05 196.727 1116.88 197.111C1116.77 197.359 1116.57 197.563 1116.5 197.825C1116.43 198.102 1116.3 198.39 1116.17 198.645C1115.69 199.576 1115.07 200.496 1114.32 201.245C1113.46 202.104 1112.2 203.028 1110.94 203.028H1110.08C1109.68 203.028 1109.38 202.791 1109.06 202.566C1108.65 202.283 1108.33 201.973 1108 201.614C1107.53 201.094 1107.12 200.325 1106.48 199.996C1106.25 199.877 1106.02 199.869 1105.77 199.798C1105.42 199.696 1105.08 199.512 1104.73 199.388C1104.38 199.266 1104.07 199.024 1103.71 198.956C1103.4 198.899 1102.69 198.84 1102.4 198.986C1101.54 199.415 1100.95 200.431 1100.82 201.347C1100.67 202.357 1100.9 203.49 1101.56 204.287C1101.86 204.637 1102.16 204.99 1102.5 205.29C1102.77 205.529 1102.95 205.847 1103.23 206.074C1104.1 206.77 1105.14 207.15 1106.02 207.813C1106.38 208.084 1106.73 208.405 1107.04 208.732C1107.6 209.311 1108.26 209.75 1108.82 210.314C1109.27 210.762 1109.67 211.256 1110.14 211.687C1110.28 211.818 1110.43 211.899 1110.54 212.06C1110.82 212.469 1111.29 212.983 1111.68 213.268C1111.97 213.477 1111.93 214.108 1111.96 214.422C1111.99 214.697 1111.94 214.91 1111.84 215.154C1111.77 215.322 1111.79 215.501 1111.71 215.681C1111.54 216.025 1111.43 216.38 1111.3 216.736C1110.9 217.752 1110.35 218.698 1109.98 219.727C1109.67 220.588 1109.27 222.008 1109.97 222.762C1110.1 222.906 1110.22 222.905 1110.37 223.011C1110.75 223.263 1111.1 223.549 1111.46 223.809C1112.02 224.206 1112.64 224.513 1113.21 224.9C1113.92 225.39 1114.56 225.973 1115.26 226.475C1115.64 226.74 1116.5 227.138 1116.42 227.72C1116.37 228.094 1116.15 228.397 1116.04 228.73M1115.67 228.5C1115.54 230.018 1115.4 231.479 1115.24 232.966C1115.21 233.282 1114.95 233.494 1114.95 233.83C1114.95 234.103 1115.01 234.373 1114.84 234.582C1114.59 234.903 1114.81 236.183 1114.81 236.567C1114.81 237.158 1114.49 237.798 1114.39 238.375C1114.16 239.603 1113.93 241.074 1113.29 242.177C1112.77 243.073 1112.23 244.61 1111.21 245.178C1110.18 245.749 1109.71 246.362 1108.47 246.362C1107.65 246.362 1107.14 246.036 1106.38 245.818C1105.4 245.54 1104.48 245.397 1103.65 244.858C1102.19 243.914 1100.12 243.625 1098.39 243.625C1097.82 243.625 1097.23 243.593 1096.66 243.625C1096.29 243.646 1095.9 244.093 1095.58 244.265C1095.13 244.509 1094.87 244.37 1094.56 244.858C1093.36 246.755 1093.04 249.051 1092.76 251.252C1092.63 252.29 1092.46 253.313 1092.27 254.357C1092.01 255.73 1092.1 257.102 1091.79 258.462C1091.57 259.486 1091.74 260.582 1091.19 261.519C1090.39 262.872 1090.05 264.006 1088.63 264.912C1086.63 266.185 1084.11 267.046 1081.9 267.897C1080.64 268.381 1079.2 268.843 1077.86 268.329C1077 267.998 1075.61 268.257 1074.7 268.257C1073.58 268.257 1072.52 268.219 1071.42 268.434C1070.49 268.616 1069.58 268.624 1068.68 268.946C1067.71 269.294 1066.77 269.572 1065.77 269.906C1063.74 270.583 1062.15 271.969 1060.22 272.899C1059.59 273.202 1058.92 272.929 1058.34 273.187C1058 273.339 1057.79 273.514 1057.42 273.595C1057.3 273.623 1056.97 274.461 1056.87 274.596C1055.9 275.921 1055.46 277.053 1055.06 278.629C1054.81 279.655 1054.72 280.727 1054.38 281.734C1054.17 282.364 1054.14 282.994 1053.88 283.639C1053.66 284.192 1053.51 284.739 1053.37 285.319C1053.21 285.99 1052.86 286.523 1052.55 287.128C1052.3 287.615 1052.04 288.473 1051.5 288.712C1051.24 288.826 1051.22 289.224 1051 289.433C1050.74 289.68 1050.37 289.765 1050.06 289.937C1049.65 290.162 1048.72 290.033 1048.26 290.009C1046.55 289.919 1045.13 288.465 1043.83 287.56C1043.31 287.2 1042.75 286.696 1042.07 286.696C1041.53 286.696 1040.5 286.818 1040.19 287.352C1039.95 287.775 1039.65 287.904 1039.47 288.424C1039.26 289.045 1038.99 289.516 1038.69 290.081C1038.49 290.452 1038.48 291.326 1038.46 291.737C1038.44 292.388 1038.46 293.303 1038.29 293.93C1037.94 295.251 1038.18 296.889 1038.18 298.252C1038.18 299.973 1037.85 302.171 1038.47 303.837C1039.1 305.499 1039.67 307.218 1040.42 308.815C1040.87 309.776 1041.02 310.913 1041.56 311.824C1041.87 312.331 1042.01 312.932 1042.21 313.489C1042.46 314.192 1043.04 314.725 1043.23 315.433C1043.38 316.04 1044.22 316.775 1044.66 317.234C1045.2 317.803 1045.74 318.562 1046.39 318.994C1047.09 319.461 1047.77 320.38 1048.4 320.979L1048.42 320.996C1049.91 322.411 1051.54 323.962 1052.47 325.813C1052.63 326.139 1053.1 326.531 1053.15 326.901C1053.24 327.521 1053.22 328.18 1053.33 328.79C1053.61 330.24 1054.45 331.658 1054.45 333.159C1054.45 335.157 1054.17 336.992 1053.74 338.913C1053.5 340.019 1053.1 341.125 1052.38 342.066C1051.93 342.66 1051.58 343.376 1051.14 343.995C1050.95 344.255 1050.21 344.562 1049.92 344.747C1048.69 345.556 1046.99 345.652 1045.67 346.22C1044.33 346.793 1043.11 347.196 1041.63 347.196H1036.3M1035.66 347.956C1034.74 348.604 1034.06 349.016 1033.57 349.933C1033.49 350.086 1033.16 350.688 1033.05 350.78C1032.86 350.927 1032.78 351.351 1032.62 351.556C1032.31 351.949 1031.99 352.18 1031.74 352.615C1031.53 352.971 1030.88 353.497 1030.55 353.745C1030.06 354.102 1029.55 354.367 1029.11 354.804C1027.95 355.96 1026.1 357.182 1024.59 357.902C1023.34 358.501 1022.2 359.323 1020.87 359.785L1020.75 359.824C1019.46 360.27 1017.92 360.804 1016.57 360.804C1014.55 360.804 1012.55 360.945 1010.53 360.945C1009.5 360.945 1008.62 360.88 1007.63 360.632C1006.99 360.474 1006.38 360.172 1005.72 360.106C999.621 359.496 993.638 357.698 987.451 357.698H982.573C981.639 357.698 980.795 357.658 979.921 357.949C979.364 358.135 979.308 358.21 979.074 358.796C978.957 359.089 978.509 359.358 978.337 359.745C977.909 360.708 977.335 361.662 976.846 362.569C976.164 363.837 975.761 365.364 974.948 366.562C974.28 367.547 973.959 368.753 973.317 369.762C972.82 370.543 972.214 370.917 971.56 371.535C970.658 372.387 969.51 372.873 968.422 373.511C967.204 374.225 965.323 373.815 964.289 373.095C963.808 372.761 962.866 372.295 962.32 372.099C961.838 371.927 960.957 371.393 960.469 371.393C959.048 371.393 957.734 371.589 956.845 372.774C956.691 372.979 956.687 373.275 956.586 373.511C956.458 373.809 955.943 374.105 955.668 374.28C955.161 374.603 954.604 374.641 954.021 374.641C953.185 374.641 952.217 373.974 951.37 373.762C950.89 373.642 950.596 373.511 950.091 373.511H950.065C949.111 373.511 947.699 373.511 947.699 374.853C947.699 375.689 946.986 376.616 946.569 377.292C946.361 377.631 946.099 377.806 945.863 378.1C945.745 378.247 945.761 378.308 945.691 378.484C945.563 378.804 944.997 379.01 944.765 379.3C944.143 380.077 943.05 380.936 942.114 381.277C941.137 381.632 940.654 381.773 940.216 382.759C939.714 383.887 938.948 384.792 938.129 385.685C937.892 385.944 937.844 386.315 937.596 386.563C937.28 386.88 936.982 386.884 936.827 387.348M936.545 387.348C930.67 390.963 923.949 390.313 917.406 390.313C916.125 390.313 914.699 390.442 913.453 390.093C912.082 389.709 910.83 389.466 909.405 389.466C908.503 389.466 907.127 389.199 906.331 389.685C905.856 389.975 905.29 390.289 904.856 390.626C904.264 391.087 903.514 391.332 902.973 391.834C901.614 393.097 899.238 394.112 897.381 394.274C896.533 394.348 895.581 394.328 894.753 394.517C893.592 394.782 892.32 394.407 891.161 394.407C888.804 394.407 886.445 394.236 884.07 394.266C882.233 394.289 880.634 395.023 879.003 395.741C878.204 396.092 877.455 396.619 876.65 396.917C874.321 397.779 872.163 398.664 869.629 398.917C867.616 399.119 865.541 398.784 863.55 398.784C861.857 398.784 859.809 399.125 858.217 398.502C857.346 398.161 856.462 397.655 855.503 397.655C854.568 397.655 852.972 397.325 852.114 397.686C850.558 398.341 849.937 400.86 849.431 402.251C849.015 403.396 848.086 404.563 847.423 405.592C847.122 406.061 846.141 406.975 845.549 407.106L845.492 407.119C844.751 407.284 844.146 407.418 843.36 407.397C842.262 407.366 841.406 406.655 840.544 406.063C839.492 405.339 838.394 404.134 837.744 403.051C836.998 401.807 836.004 400.747 835.179 399.561C834.628 398.768 834.3 397.781 833.838 396.941C833.195 395.772 832.705 394.479 832.206 393.246C830.868 389.934 830.363 386.369 829.1 383.002C828.752 382.075 828.575 380.998 828.426 380.006C828.232 378.722 828.697 377.588 829.304 376.484C830.385 374.518 831.642 372.529 831.642 370.256C831.642 369.081 831.23 367.981 830.238 367.236C829.558 366.726 828.798 366.7 827.971 366.624C826.807 366.517 825.774 366.281 824.629 366.028C823.61 365.803 822.586 365.653 821.547 365.597C820.54 365.542 819.659 364.879 818.66 364.695C817.532 364.487 816.275 364.193 815.123 364.193C814.095 364.193 813.512 364.919 812.66 365.354C811.679 365.854 810.234 365.694 809.334 365.103C808.665 364.664 807.975 364.673 807.279 364.334C806.363 363.888 805.512 363.635 804.518 363.377C803.684 363.161 802.763 362.825 801.976 362.475C801.418 362.227 800.928 361.869 800.329 361.714C799.896 361.602 799.498 361.555 799.113 361.306C798.595 360.971 797.839 360.876 797.254 360.663C795.989 360.203 794.964 359.481 793.882 358.72L793.834 358.686C793.113 358.179 792.996 357.123 792.603 356.357C792.024 355.23 791.709 354.027 790.305 354.027C789.367 354.027 788.535 353.921 787.622 353.713C787.03 353.579 785.619 353.014 785.253 352.545C784.633 351.748 783.774 351.086 783.418 350.074C782.942 348.721 782.271 347.277 782.092 345.846C781.922 344.485 781.35 343.5 780.39 342.591C779.923 342.148 779.364 341.847 778.908 341.391C778.591 341.074 778.408 340.993 777.99 340.834C777.428 340.62 776.865 339.704 776.468 339.265C775.733 338.452 775.189 338.457 774.241 338.638C772.867 338.899 771.493 338.931 770.115 339.171C767.235 339.672 764.377 339.344 761.471 339.344M763.165 339.485C762.146 339.177 761.083 338.698 760.028 338.528C759.441 338.433 758.835 338.427 758.255 338.324C757.675 338.221 757.055 338.283 756.498 338.104C755.463 337.772 754.287 337.525 753.211 337.359C752.298 337.219 751.463 336.943 750.529 336.943C748.933 336.943 747.221 337.109 745.658 336.771C742.83 336.16 739.789 336.84 737.037 335.877C735.491 335.335 734.237 333.712 733.092 332.566C732.819 332.294 732.654 332.051 732.464 331.719C732.254 331.35 731.735 331.245 731.57 330.841C731.234 330.017 730.464 329.162 729.719 328.684C729.127 328.304 728.747 327.44 728.284 326.919C727.493 326.029 726.649 325.573 725.703 324.88C724.527 324.017 723.079 323.672 721.593 323.672C720.67 323.672 719.408 323.442 718.549 323.813C717.876 324.104 717.204 323.937 716.541 324.127C714.82 324.618 713.117 325.119 711.694 326.284C710.551 327.219 709.144 327.802 707.968 328.684C707.645 328.926 707.539 329.185 707.129 329.39C706.741 329.584 706.31 329.996 706.007 330.3C705.418 330.889 704.707 331.322 704.117 331.892C703.325 332.656 702.426 333.304 701.466 333.837C700.422 334.417 699.592 335.339 698.501 335.884C697.129 336.57 695.071 336.951 693.559 336.551C692.225 336.198 690.779 334.168 689.182 334.967C688.004 335.556 686.878 336.317 685.794 337.014C683.693 338.364 681.451 339.048 679.024 339.547C677.908 339.777 676.916 339.897 675.824 340.261C674.613 340.665 673.511 341.209 672.412 341.854C671.577 342.343 670.535 342.45 669.588 342.45C669.069 342.45 668.282 342.598 667.831 342.309C666.615 341.527 665.508 339.626 663.901 339.626C662.737 339.626 661.718 339.94 660.599 340.253L660.485 340.285C658.145 340.941 655.804 341.596 653.555 342.56C651.307 343.523 648.816 344.501 646.323 344.701C645.332 344.78 644.339 344.91 643.351 344.983C642.485 345.047 641.626 344.85 640.754 344.85C638.259 344.85 636.079 345.39 633.585 344.771C632.729 344.559 632.339 344.099 631.718 343.501C631.113 342.917 630.356 342.459 629.679 341.963C629.15 341.576 628.441 341.35 628.079 340.787C627.779 340.32 627.637 339.843 627.483 339.312C627.292 338.657 626.825 338.266 626.777 337.618C626.721 336.86 625.578 336.379 624.941 336.237C624.032 336.035 623.336 335.814 622.392 335.814C621.579 335.814 620.709 335.871 619.945 335.531C619.249 335.222 618.743 334.17 618.188 333.649C617.685 333.178 617.741 331.819 617.741 331.155V328.754C617.741 327.627 616.817 326.477 616.031 325.727C615.605 325.32 614.926 325.249 614.423 324.942C614.03 324.703 613.698 324.519 613.23 324.519C612.47 324.519 611.41 324.197 610.681 323.954M609.286 322.5C606.194 320.791 603.464 318.639 600.392 316.932C599.32 316.337 598.559 315.192 597.493 314.495C596.268 313.694 594.699 313.117 593.639 312.057C592.374 310.792 591.49 308.589 589.785 307.907C588.839 307.528 587.85 304.88 587.347 304.052C586.455 302.582 585.528 300.752 584.91 299.144C583.984 296.737 581.664 294.627 581.105 292.111C580.571 289.708 578.719 287.327 577.221 285.403L577.135 285.292C575.026 282.581 575.412 279.012 574.451 275.937C573.528 272.984 572.814 269.506 571.173 266.927C569.711 264.629 570.448 260.522 570.448 257.803C570.448 256.182 570.575 254.134 571.107 252.598C571.541 251.344 572.227 250.366 572.227 248.974C572.227 246.228 570.357 243.711 568.439 241.793C566.08 239.435 562.851 239.364 559.644 239.191C556.012 238.995 553.216 237.663 550.436 235.501C549.535 234.801 546.517 235.337 545.413 235.337H541.855C540.016 235.337 538.434 234.599 536.93 233.723C535.83 233.081 534.442 232.792 533.159 232.438C531.835 232.073 530.928 232.628 529.766 233.031C527.609 233.777 523.713 233.496 522.057 232.141C521.391 231.596 519.383 231.483 518.566 231.483C517.2 231.483 516.599 231.605 515.897 232.833C514.688 234.949 510.904 235.337 508.799 235.337C507.456 235.337 505.913 235.559 504.747 235.04C503.49 234.482 501.446 233.261 500.053 233.261C497.307 233.261 493.593 232.399 491.142 231.038C490.208 230.519 489.265 230.593 488.177 230.593C487.102 230.593 484.785 229.515 484.043 228.814C483.188 228.007 482.423 227.069 481.737 226.212C481.077 225.387 481.325 224.411 480.979 223.412C480.688 222.571 480.406 221.364 479.859 220.661C479.441 220.124 479.452 219.279 479.069 218.8C478.716 218.359 477.71 216.82 477.652 216.362C477.548 215.53 476.64 214.652 476.104 214.057C475.34 213.207 474.926 212.154 474.095 211.322C472.972 210.2 471.513 209.732 470.372 208.654C469.769 208.084 467.888 207.941 466.979 207.617C464.362 206.682 461.785 206.875 458.975 206.875C457.713 206.875 455.834 207.25 454.676 207.765C453.27 208.389 451.541 208.409 450.229 209.115C449.381 209.572 447.605 210.433 446.671 210.433C445.352 210.433 445.297 211.948 444.316 212.508C444.018 212.678 443.134 214.878 442.965 215.341C442.496 216.632 441.751 218.038 440.824 218.965C439.985 219.803 439.834 220.941 438.518 221.106C437.284 221.26 436.529 222.885 434.96 222.885C433.479 222.885 432.398 222.943 431.106 222.226C429.701 221.446 428.518 219.967 427.417 218.866C426.862 218.311 426.288 216.123 425.918 215.308C425.415 214.201 425.286 213.06 424.732 212.064C424.229 211.159 424.176 210.226 423.53 209.395C422.392 207.932 421.4 205.122 419.544 204.504M418.951 203.614C417.819 202.482 416.709 202.025 415.69 200.946C414.733 199.933 413.83 199.147 412.791 198.212C411.654 197.189 410.561 196.262 409.167 195.675C408.059 195.209 406.992 194.121 405.758 193.847C404.458 193.558 403.549 192.712 402.184 192.348C400.592 191.924 399.399 191.704 398.198 190.569C397.581 189.987 396.545 189.444 395.826 189.021C394.845 188.444 393.886 187.562 393.01 186.88C390.89 185.232 388.036 185.232 385.43 185.233L385.285 185.233C383.938 185.233 383.08 185.284 382.04 184.475C380.967 183.641 379.986 182.106 378.927 181.445C377.758 180.714 377.504 179.066 376.555 178.117C375.763 177.325 374.896 176.728 374.167 175.877C373.37 174.948 371.978 174.623 371.367 173.522C370.952 172.774 369.087 172.22 368.32 171.529C367.607 170.888 365.937 170.706 364.993 170.706C363.535 170.706 362.802 170.821 361.732 171.892C360.128 173.495 359.064 176.782 358.783 179.023C358.585 180.607 358.332 183.812 358.932 185.183L358.956 185.238C359.375 186.198 360.33 188.38 361.139 188.856C362.388 189.591 362.817 190.765 363.807 191.755C364.981 192.929 366.237 194.696 366.904 196.219C367.565 197.73 367.661 198.891 367.661 200.534C367.661 202.597 367.958 204.575 367.958 206.645C367.958 208.468 367.27 209.908 367.068 211.619C367 212.198 364.909 213.909 364.565 214.007C363.642 214.271 363.333 217.304 363.231 218.125C363.099 219.174 363.206 221.727 362.555 222.522C361.25 224.118 358.332 225.881 357.878 227.925C357.263 230.692 356.161 233.394 353.875 235.172C352.88 235.946 350.466 237.133 350.466 238.45C350.466 239.433 349.687 240.514 349.049 241.2C348.359 241.944 348.437 243.021 347.501 243.572C347.004 243.864 346.772 244.344 346.463 244.824C346.024 245.507 345.389 245.75 344.833 246.306C343.576 247.563 342.41 248.397 340.814 249.123C339.45 249.743 338.475 249.864 336.976 249.864C335.139 249.864 334.652 250.865 333.567 252.071C332.108 253.692 331.625 255.614 330.372 257.374C329.172 259.059 327.679 259.936 326.221 261.36C324.733 262.814 323.698 263.186 323.124 265.05C322.431 267.302 322.444 269.249 323.322 271.506C323.682 272.432 323.617 273.516 323.849 274.471C324.106 275.526 324.72 276.538 324.953 277.584C325.227 278.82 321.599 280.769 320.753 281.29C319.154 282.274 317.782 283.495 316.009 284.255C314.574 284.87 312.99 285.795 311.793 286.775C310.823 287.568 309.227 288.461 308.943 289.739C308.649 291.064 307.207 291.073 306.143 291.073C305.299 291.073 304.09 288.576 303.458 287.944C302.427 286.912 301.664 285.637 300.362 284.913C298.71 283.996 296.797 283.958 294.861 283.958C293.39 283.958 293.38 285.044 292.522 285.902C292.159 286.265 292.458 286.783 291.995 287.153C291.511 287.541 290.958 287.303 290.447 287.961C289.443 289.251 287.807 289.509 287.91 291.37C287.998 292.952 291.943 295.355 289.244 296.855C286.818 298.203 284.231 299.245 281.388 299.078C281.075 299.06 280.414 298.682 280.095 298.5L280.07 298.485C279.675 298.26 278.828 297.801 278.489 297.53C277.786 296.968 276.925 295.552 276.496 294.779C275.852 293.62 276.009 292.494 275.458 291.255C275.013 290.253 274.292 289.62 273.679 288.702M272.493 289.591C270.72 288.301 267.534 288.109 265.378 288.109C264.415 288.109 263.755 287.435 262.858 287.236C261.798 287 259.887 286.804 259.152 285.885C258.559 285.144 257.755 284.676 257.077 283.958C256.463 283.308 255.871 282.638 255.002 282.328C253.722 281.871 252.934 280.993 251.51 280.993H247.227C245.915 280.993 244.945 281.061 243.884 280.236C243.19 279.696 241.366 279.184 241.002 278.622C240.482 277.818 239.048 277.361 238.234 276.991C237.733 276.763 237.214 276.759 236.736 276.546C235.907 276.178 235.1 275.78 234.232 275.509C232.877 275.085 231.765 274.521 230.328 274.24C228.724 273.926 226.986 274.265 225.354 274.175C223.498 274.071 221.281 272.266 219.573 271.506C217.797 270.717 215.466 268.084 214.681 266.318C213.8 264.335 213.406 262.188 212.54 260.24C210.758 256.23 210.759 251.537 210.531 247.196C210.395 244.616 209.938 242.12 209.938 239.487C209.938 237.886 210.557 234.494 209.79 233.113C209.35 232.322 209.256 231.251 208.159 231.186C207.108 231.124 206.091 230.113 205.194 229.638C203.163 228.562 200.555 227.035 198.227 227.035C196.624 227.035 194.97 226.539 193.335 226.443C193.17 226.433 191.31 224.914 191.276 224.795C190.472 221.979 187.999 219.793 187.999 216.659C187.999 214.336 189.754 212.523 190.733 210.565C191.906 208.218 193.039 204.639 193.039 202C193.039 201.212 193.294 199.888 192.973 199.167C192.389 197.854 191.447 196.142 191.244 194.72C190.935 192.563 189.122 190.774 189.844 188.428C190.738 185.52 192.286 183.327 193.78 180.637C194.724 178.939 195.191 175.026 194.159 173.374C193.866 172.905 193.171 173.112 192.709 173.061C191.239 172.898 189.863 172.144 188.411 171.892C186.822 171.615 185.44 171.098 183.914 170.772C180.423 170.023 176.587 167.66 173.933 165.386C172.253 163.946 169.946 162.612 168.563 160.691C167.368 159.031 166.38 157.469 165.335 155.569C164.072 153.272 162.843 150.564 160.723 148.898C160.116 148.421 159.767 147.604 159.175 147.054C158.317 146.257 157.257 146.395 156.177 146.395C154.767 146.395 153.464 146.177 152.126 146.098C151.273 146.048 150.075 144.345 149.589 143.727C148.089 141.817 145.915 140.411 144.417 138.538C142.423 136.045 139.563 133.906 138.488 130.682M3 25.4342C4.9201 25.0227 6.83342 24.2483 8.78121 24.2483C10.5092 24.2483 10.798 24.8945 12.0424 25.8624C14.0917 27.4563 16.822 29.2475 18.4166 31.4295C20.308 34.0177 23.444 36.9966 26.7343 36.9966C28.3827 36.9966 30.0445 37.0554 31.6919 36.9966C32.5418 36.9662 36.4652 35.6387 36.8637 34.9213C37.6109 33.5765 38.2802 32.1789 38.2802 30.6224C38.2802 29.6582 37.9807 28.1062 38.5767 27.3612C39.2856 26.4751 42.1517 26.8395 42.925 27.2789C44.8038 28.3464 46.7712 28.5603 48.6568 29.3542C50.5013 30.1308 53.4882 29.5848 55.4756 29.5848C57.3818 29.5848 58.3476 28.9135 60.0709 28.2507C61.2586 27.7939 62.5397 27.429 63.4804 26.4883C64.3042 25.6645 65.6235 24.6692 65.918 23.5236C66.204 22.4116 66.4261 21.3002 67.0381 20.3283C67.4868 19.6156 67.306 18.8718 67.7628 18.1541C68.2518 17.3856 68.2893 15.7019 68.5204 14.7776C68.9066 13.2329 69.1134 12.1171 69.1134 10.4623C69.1134 7.87668 68.673 4.89293 71.1887 3.56109C73.4335 2.37264 77.3879 3.38096 79.7534 3.77521C81.7348 4.10544 84.5992 6.20665 86.177 7.49758C87.8125 8.83576 90.2571 9.42498 91.9417 10.6764C93.1137 11.547 95.6078 11.92 96.3229 13.2788C97.1732 14.8942 97.5747 15.8938 97.5747 17.7094C97.5747 19.8189 97.5882 22.1874 98.1677 24.2153C98.4418 25.1748 99.3175 26.6022 99.3536 27.5754C99.3941 28.669 99.9099 29.6078 99.9465 30.7048C99.9868 31.9125 99.8306 33.0929 100.177 34.2625C100.852 36.5419 98.0759 39.2827 96.7182 40.8343C94.9941 42.8047 93.8476 45.4463 91.9253 47.2084C90.002 48.9715 88.7999 51.6553 86.9017 53.4179C86.0593 54.2001 86.0608 55.0173 85.5676 56.0038C84.7366 57.6657 84.0301 59.2015 83.4923 60.9944C82.2131 65.2583 79.9951 68.8947 78.0075 72.8698C76.8333 75.2183 76.0476 77.8401 75.191 80.3145C74.6675 81.8269 74.4499 83.4842 74.4499 85.0745C74.4499 86.2734 74.8109 86.5186 75.0428 87.4463C75.4055 88.897 75.9322 90.3873 75.9322 91.844C75.9322 94.9713 74.2967 97.2234 73.791 100.145C73.5079 101.781 73.079 103.45 72.5063 105.004C72.2884 105.596 71.6439 105.879 71.5016 106.519C71.0362 108.614 69.0081 110.442 68.1581 112.482C67.5849 113.857 67.5189 115.866 67.3345 117.341C66.8609 121.13 64.5421 124.408 62.8874 127.717C61.7716 129.949 60.2564 131.85 58.7368 133.811C57.7593 135.073 56.8576 136.371 55.4756 137.138C55.1601 137.314 55.1889 137.5 54.998 137.797C54.5713 138.461 53.6447 138.561 53.1203 139.164C51.8104 140.671 51.0157 142.163 50.1227 143.875C49.6755 144.732 47.2251 150.837 48.5085 151.122C50.0233 151.459 51.6073 151.227 53.1038 151.797C54.8883 152.477 56.5052 151.709 58.2098 151.204C60.2835 150.59 60.9069 149.003 63.3321 149.376C65.7008 149.741 67.3684 150.284 69.5416 148.454C73.0411 145.507 76.4167 141.058 81.4993 141.058C87.4335 141.058 92.4023 144.563 96.8335 148.009C98.0461 148.952 99.4831 147.98 100.671 147.515C102.371 146.85 103.343 146.224 104.163 144.616C104.904 143.162 105.766 141.483 106.699 140.169C107.57 138.944 108.469 138.084 108.907 136.611C109.289 135.327 110.514 134.606 110.932 133.35C111.276 132.319 112.236 131.182 112.827 130.254C113.247 129.593 113.375 129.091 113.881 128.458C114.055 128.24 115.497 127.738 115.824 127.585C118.216 126.469 118.771 126.189 119.283 123.501C119.64 121.629 119.593 120.374 121.227 119.284C122.203 118.633 122.907 118.23 124.093 118.23C124.919 118.23 125.018 118.638 125.608 118.807C126.234 118.985 127.072 119.119 127.733 119.119C129.03 119.119 130.963 118.69 132.147 118.872C132.802 118.973 133.386 119.69 133.942 120.009C134.637 120.408 135.409 120.61 136.116 120.964C137.24 121.526 138.42 121.74 139.608 122.15C140.359 122.409 143.502 124.414 142.573 125.576C140.825 127.76 136.563 130.021 137.895 133.35" stroke="#4974AD" stroke-width="5" stroke-linecap="round"/>
</svg>
