<svg width="1440" height="866" viewBox="0 0 1440 866" fill="none" xmlns="http://www.w3.org/2000/svg">
<rect y="112" width="1440" height="661" fill="#BDE19E"/>
<path d="M58.5 161L0 121V0H1440V329.5L1224.5 229.442L1088.5 240.912L1058 303.745L950.5 354.11V437.389L915 456.837L855 379.543L670.5 408.466L647.5 336.158L455 246.896L325 281.803L249.5 167L153.5 128L58.5 161Z" fill="#D8F3C0"/>
<path d="M77.5 487L0 473V866H1440V574L1364.5 625.5L1242 582L1185 601L1129 674.5L880 747L779.5 687L632.5 702L572.5 762.775L366 737.841L77.5 487Z" fill="#A1BF87"/>
<path d="M1370.12 522.857C1370.09 521.211 1369.01 519.916 1367.93 518.833C1367.58 518.479 1367.38 517.976 1367.05 517.602C1366.49 516.988 1365.92 516.709 1365.26 516.284C1365.05 516.153 1364.77 515.849 1364.54 515.806C1364.25 515.754 1363.76 515.775 1363.59 515.516C1363.27 515 1362.1 514.857 1361.59 514.668C1360.74 514.359 1359.89 513.957 1359.46 513.186C1359.26 512.831 1359.15 512.715 1359.1 512.284C1359.06 511.925 1358.7 511.708 1358.68 511.311C1358.67 510.897 1358.42 510.993 1358.29 510.684C1358.09 510.178 1357.82 509.719 1357.7 509.178C1357.48 508.201 1356.78 507.327 1356.35 506.401C1356.18 506.026 1356.03 506.003 1355.8 505.703C1355.59 505.442 1355.79 505.173 1355.44 504.958C1354.99 504.682 1354.76 504.114 1354.45 503.726C1353.16 502.116 1350.47 502.107 1348.67 501.475C1347.43 501.043 1346.11 500.312 1345.06 499.498C1344.69 499.21 1344.07 499.226 1343.75 498.965C1343.35 498.65 1342.7 498.098 1342.45 497.663C1341.99 496.862 1341.68 495.952 1341.11 495.192C1340.43 494.29 1340.54 492.702 1340.34 491.592C1340.06 490.084 1339.78 488.657 1338.77 487.482C1338.46 487.119 1337.65 486.909 1337.19 486.744C1336.55 486.515 1335.71 486.225 1335.18 485.795C1334.84 485.514 1334.28 485.285 1334.01 484.987C1333.5 484.429 1333.09 483.722 1332.63 483.175C1332.4 482.899 1332.29 482.311 1332.14 481.968C1331.79 481.154 1331.56 480.319 1331.15 479.512C1330.76 478.73 1330.47 478.167 1330.31 477.316C1329.95 475.322 1329.5 473.244 1328.61 471.386C1328.08 470.276 1327.23 468.695 1327.07 467.464C1327.01 467.069 1326.89 466.881 1326.71 466.523C1326.29 465.684 1325.61 464.541 1324.83 463.982C1323.84 463.267 1322.73 462.571 1321.97 461.723C1321.37 461.043 1320.56 460.036 1320.25 459.15C1319.72 457.609 1319.38 456.018 1319.29 454.381C1319.25 453.674 1319.29 452.955 1319.29 452.247C1319.29 451.542 1319.4 450.522 1319.12 449.863C1318.94 449.435 1318.44 448.95 1318.08 448.663C1317.56 448.236 1317.07 447.773 1316.55 447.329C1315.98 446.834 1315.35 446.463 1314.81 445.941C1314.64 445.779 1314.39 445.727 1314.24 445.596C1314.01 445.384 1313.89 445.062 1313.57 444.921C1313.23 444.77 1313.11 444.365 1312.81 444.152C1312.22 443.747 1312.24 443.431 1312.23 442.725C1312.22 441.977 1312.09 441.238 1312.09 440.474C1312.09 439.799 1311.74 439.673 1311.28 439.227C1310.68 438.654 1309.48 438.659 1308.77 438.207C1308.09 437.777 1307.85 437.464 1307.29 436.873C1306.68 436.231 1306.3 435.502 1305.95 434.677C1305.52 433.681 1304.88 432.775 1304.44 431.791C1304.29 431.472 1304.38 431.136 1304.18 430.834C1303.91 430.396 1303.48 429.752 1303.35 429.257C1303.19 428.608 1302.77 427.908 1302.77 427.241C1302.77 426.392 1303.59 425.871 1304.12 425.343C1304.93 424.535 1305.87 423.616 1306.27 422.503C1306.43 422.061 1306.49 420.455 1306.15 420.15C1305.62 419.665 1305.11 419.047 1304.61 418.519C1303.72 417.587 1302.75 416.687 1301.78 415.828C1301.41 415.492 1301.24 415.135 1300.8 414.911C1300.5 414.763 1300.29 414.42 1300.12 414.142C1299.82 413.623 1298.67 412.381 1298.18 412.165C1297.73 411.963 1297.21 411.637 1296.98 411.177" stroke="#4974AD" stroke-width="5" stroke-linecap="round"/>
<path d="M1297.98 411.74C1296.33 410.299 1294.61 408.672 1292.33 408.672C1291.45 408.672 1290.6 408.427 1289.76 408.427C1289.06 408.427 1288.17 408.359 1287.55 408.031C1286.16 407.301 1285.1 407.444 1284.08 406C1283.62 405.334 1282.97 404.786 1282.58 404.071C1282.14 403.277 1282.03 402.153 1281.75 401.283C1281.57 400.7 1281.29 399.768 1281.29 399.163C1281.29 398.502 1280.54 397.867 1280 397.629C1278.63 397.019 1277.15 397.297 1275.73 397.043C1274.58 396.839 1273.39 397.092 1272.28 396.586C1272.03 396.475 1271.8 396.348 1271.54 396.273C1271.3 396.203 1271.4 395.596 1271.32 395.421C1271.03 394.773 1270.96 394.089 1270.64 393.457C1270.29 392.75 1269.41 392.967 1268.71 392.967C1267.93 392.967 1267.16 393.241 1266.39 393.335C1265.33 393.463 1264.28 393.541 1263.22 393.675C1262.58 393.757 1261.91 393.703 1261.26 393.703C1259.99 393.703 1259.08 392.882 1257.87 392.612C1256.62 392.336 1255.27 392.476 1253.99 392.476C1252.51 392.476 1251.09 392.44 1249.63 392.721C1248.18 393.002 1247.03 393.634 1246.1 394.807C1245.33 395.783 1244.52 396.687 1243.74 397.677C1242.98 398.649 1241.67 399.236 1240.74 400.029C1240.28 400.414 1239.8 400.803 1239.3 401.126C1238.66 401.547 1237.72 402.091 1236.99 402.319C1236.01 402.631 1235.21 403.519 1234.11 403.519C1233.49 403.519 1233.56 402.948 1233.31 402.462C1232.94 401.746 1232.82 400.915 1232.43 400.206C1231.95 399.35 1229.62 401.509 1229.32 402.046C1228.56 403.402 1228.05 404.01 1226.39 404.01C1225.37 404.01 1224.86 403.837 1224.1 403.144C1223.01 402.151 1221.77 402.543 1220.55 402.019C1219.54 401.584 1219.73 399.006 1219.82 398.127C1219.87 397.619 1221.47 394.306 1220.46 394.071C1219.66 393.883 1219.2 393.66 1218.46 394.146C1217.86 394.544 1217.35 394.978 1216.9 395.543C1216.59 395.926 1216.51 396.418 1216.2 396.798C1215.15 398.122 1213.88 399.705 1212.52 400.649C1212.16 400.892 1211.91 401.163 1211.53 401.372C1211.22 401.547 1210.78 401.705 1210.61 402.046" stroke="#4974AD" stroke-width="5" stroke-linecap="round"/>
<path d="M1210.56 401.623C1209.78 401.98 1208.93 402.48 1208.06 402.48C1207.74 402.48 1207.42 402.48 1207.1 402.48C1206.71 402.48 1206.31 402.546 1205.91 402.546C1205.2 402.546 1204.49 402.875 1203.77 402.875C1202.72 402.875 1201.66 403.236 1200.61 403.34C1200.43 403.358 1200.26 403.437 1200.09 403.505C1199.93 403.574 1199.85 403.733 1199.68 403.783C1199.41 403.864 1199.12 404.129 1198.94 404.355C1198.64 404.745 1198.23 405.057 1198.03 405.512C1197.83 405.976 1197.76 406.45 1197.6 406.925C1197.47 407.311 1197.3 407.716 1197.15 408.096C1196.95 408.584 1196.81 409.103 1196.6 409.583C1196.44 409.941 1196.14 410.23 1195.93 410.557C1195.59 411.084 1195.34 411.418 1194.88 411.838C1194.06 412.576 1193.02 413.096 1191.97 413.457C1191.45 413.637 1190.93 413.853 1190.39 413.962C1189.8 414.081 1189.24 414.319 1188.63 414.343C1188.23 414.358 1187.82 414.343 1187.42 414.343C1186.85 414.343 1186.29 414.36 1185.72 414.412C1185.43 414.439 1185.24 414.608 1184.98 414.672C1184.61 414.764 1184.4 415.03 1184.13 415.251C1183.9 415.438 1183.78 415.682 1183.57 415.873C1183.33 416.092 1183.09 416.319 1182.88 416.569C1182.45 417.077 1182.01 417.538 1181.49 417.953C1181 418.345 1180.64 418.835 1180.12 419.205C1179.83 419.416 1179.5 419.617 1179.22 419.846C1178.99 420.04 1178.52 419.944 1178.23 419.944C1177.58 419.944 1177.06 419.236 1176.63 418.809C1175.98 418.169 1175.8 417.423 1175.4 416.62C1175.07 415.943 1174.77 415.232 1174.4 414.573C1173.99 413.847 1173.43 413.281 1172.9 412.658C1172.46 412.15 1172.16 411.641 1171.42 411.641C1170.82 411.641 1170.36 411.621 1169.82 411.908C1168.82 412.446 1168.13 413.276 1167.64 414.277C1167.36 414.842 1167.13 415.31 1167.13 415.954C1167.13 416.637 1166.94 417.216 1166.76 417.869C1166.42 419.128 1165.64 420.221 1165.15 421.416C1164.93 421.964 1164.75 422.469 1164.44 422.976C1164.22 423.336 1164.05 423.727 1163.88 424.111C1163.77 424.359 1163.57 424.563 1163.5 424.825C1163.43 425.102 1163.3 425.39 1163.17 425.645C1162.69 426.576 1162.07 427.496 1161.32 428.245C1160.46 429.104 1159.2 430.028 1157.94 430.028C1157.65 430.028 1157.36 430.028 1157.08 430.028C1156.68 430.028 1156.38 429.791 1156.06 429.566C1155.65 429.283 1155.33 428.973 1155 428.614C1154.53 428.094 1154.12 427.325 1153.48 426.996C1153.25 426.877 1153.02 426.869 1152.77 426.798C1152.42 426.696 1152.08 426.512 1151.73 426.388C1151.38 426.266 1151.07 426.024 1150.71 425.956C1150.4 425.899 1149.69 425.84 1149.4 425.986C1148.54 426.415 1147.95 427.431 1147.82 428.347C1147.67 429.357 1147.9 430.49 1148.56 431.287C1148.86 431.637 1149.16 431.99 1149.5 432.29C1149.77 432.529 1149.95 432.847 1150.23 433.074C1151.1 433.77 1152.14 434.15 1153.02 434.813C1153.38 435.084 1153.73 435.405 1154.04 435.732C1154.6 436.311 1155.26 436.75 1155.82 437.314C1156.27 437.762 1156.67 438.256 1157.14 438.687C1157.28 438.818 1157.43 438.899 1157.54 439.06C1157.82 439.469 1158.29 439.983 1158.68 440.268C1158.97 440.477 1158.93 441.108 1158.96 441.422C1158.99 441.697 1158.94 441.91 1158.84 442.154C1158.77 442.322 1158.79 442.501 1158.71 442.681C1158.54 443.025 1158.43 443.38 1158.3 443.736C1157.9 444.752 1157.35 445.698 1156.98 446.727C1156.67 447.588 1156.27 449.008 1156.97 449.762C1157.1 449.906 1157.22 449.905 1157.37 450.011C1157.75 450.263 1158.1 450.549 1158.46 450.809C1159.02 451.206 1159.64 451.513 1160.21 451.9C1160.92 452.39 1161.56 452.973 1162.26 453.475C1162.64 453.74 1163.5 454.138 1163.42 454.72C1163.37 455.094 1163.15 455.397 1163.04 455.73" stroke="#4974AD" stroke-width="5" stroke-linecap="round"/>
<path d="M1162.67 455.5C1162.54 457.018 1162.4 458.479 1162.24 459.966C1162.21 460.282 1161.95 460.494 1161.95 460.83C1161.95 461.103 1162.01 461.373 1161.84 461.582C1161.59 461.903 1161.81 463.183 1161.81 463.567C1161.81 464.158 1161.49 464.798 1161.39 465.375C1161.16 466.603 1160.93 468.074 1160.29 469.177C1159.77 470.073 1159.23 471.61 1158.21 472.178C1157.18 472.749 1156.71 473.362 1155.47 473.362C1154.65 473.362 1154.14 473.036 1153.38 472.818C1152.4 472.54 1151.48 472.397 1150.65 471.858C1149.19 470.914 1147.12 470.625 1145.39 470.625C1144.82 470.625 1144.23 470.593 1143.66 470.625C1143.29 470.646 1142.9 471.093 1142.58 471.265C1142.13 471.509 1141.87 471.37 1141.56 471.858C1140.36 473.755 1140.04 476.051 1139.76 478.252C1139.63 479.29 1139.46 480.313 1139.27 481.357C1139.01 482.73 1139.1 484.102 1138.79 485.462C1138.57 486.486 1138.74 487.582 1138.19 488.519C1137.39 489.872 1137.05 491.006 1135.63 491.912C1133.63 493.185 1131.11 494.046 1128.9 494.897C1127.64 495.381 1126.2 495.843 1124.86 495.329C1124 494.998 1122.61 495.257 1121.7 495.257C1120.58 495.257 1119.52 495.219 1118.42 495.434C1117.49 495.616 1116.58 495.624 1115.68 495.946C1114.71 496.294 1113.77 496.572 1112.77 496.906C1110.74 497.583 1109.15 498.969 1107.22 499.899C1106.59 500.202 1105.92 499.929 1105.34 500.187C1105 500.339 1104.79 500.514 1104.42 500.595C1104.3 500.623 1103.97 501.461 1103.87 501.596C1102.9 502.921 1102.46 504.053 1102.06 505.629C1101.81 506.655 1101.72 507.727 1101.38 508.734C1101.17 509.364 1101.14 509.994 1100.88 510.639C1100.66 511.192 1100.51 511.739 1100.37 512.319C1100.21 512.99 1099.86 513.523 1099.55 514.128C1099.3 514.615 1099.04 515.473 1098.5 515.712C1098.24 515.826 1098.22 516.224 1098 516.433C1097.74 516.68 1097.37 516.765 1097.06 516.937C1096.65 517.162 1095.72 517.033 1095.26 517.009C1093.55 516.919 1092.13 515.465 1090.83 514.56C1090.31 514.2 1089.75 513.696 1089.07 513.696C1088.53 513.696 1087.5 513.818 1087.19 514.352C1086.95 514.775 1086.65 514.904 1086.47 515.424C1086.26 516.045 1085.99 516.516 1085.69 517.081C1085.49 517.452 1085.48 518.326 1085.46 518.737C1085.44 519.388 1085.46 520.303 1085.29 520.93C1084.94 522.251 1085.18 523.889 1085.18 525.252C1085.18 526.973 1084.85 529.171 1085.47 530.837C1086.1 532.499 1086.67 534.218 1087.42 535.815C1087.87 536.776 1088.02 537.913 1088.56 538.824C1088.87 539.331 1089.01 539.932 1089.21 540.489C1089.46 541.192 1090.04 541.724 1090.23 542.433C1090.38 543.04 1091.22 543.775 1091.66 544.234C1092.2 544.803 1092.74 545.562 1093.39 545.994C1094.09 546.461 1094.77 547.38 1095.4 547.979C1096.9 549.399 1098.54 550.955 1099.47 552.813C1099.63 553.139 1100.1 553.531 1100.15 553.901C1100.24 554.521 1100.22 555.18 1100.33 555.79C1100.61 557.24 1101.45 558.658 1101.45 560.159C1101.45 562.157 1101.17 563.992 1100.74 565.913C1100.5 567.019 1100.1 568.125 1099.38 569.066C1098.93 569.66 1098.58 570.376 1098.14 570.995C1097.95 571.255 1097.21 571.562 1096.92 571.747C1095.69 572.556 1093.99 572.652 1092.67 573.22C1091.33 573.793 1090.11 574.196 1088.63 574.196C1086.86 574.196 1085.08 574.196 1083.3 574.196" stroke="#4974AD" stroke-width="5" stroke-linecap="round"/>
<path d="M1082.66 574.956C1081.74 575.604 1081.06 576.016 1080.57 576.933C1080.49 577.086 1080.16 577.688 1080.05 577.78C1079.86 577.927 1079.78 578.351 1079.62 578.556C1079.31 578.949 1078.99 579.18 1078.74 579.615C1078.53 579.971 1077.88 580.497 1077.55 580.745C1077.06 581.102 1076.55 581.367 1076.11 581.804C1074.95 582.96 1073.1 584.182 1071.59 584.902C1070.34 585.501 1069.2 586.323 1067.87 586.785C1066.56 587.238 1064.96 587.804 1063.57 587.804C1061.55 587.804 1059.55 587.945 1057.53 587.945C1056.5 587.945 1055.62 587.88 1054.63 587.632C1053.99 587.474 1053.38 587.172 1052.72 587.106C1046.62 586.496 1040.64 584.698 1034.45 584.698C1032.83 584.698 1031.2 584.698 1029.57 584.698C1028.64 584.698 1027.79 584.658 1026.92 584.949C1026.36 585.135 1026.31 585.21 1026.07 585.796C1025.96 586.089 1025.51 586.358 1025.34 586.745C1024.91 587.708 1024.34 588.662 1023.85 589.569C1023.16 590.837 1022.76 592.364 1021.95 593.562C1021.28 594.547 1020.96 595.753 1020.32 596.762C1019.82 597.543 1019.21 597.917 1018.56 598.535C1017.66 599.387 1016.51 599.873 1015.42 600.511C1014.2 601.225 1012.32 600.815 1011.29 600.095C1010.81 599.761 1009.87 599.295 1009.32 599.099C1008.84 598.927 1007.96 598.393 1007.47 598.393C1006.05 598.393 1004.73 598.589 1003.84 599.774C1003.69 599.979 1003.69 600.275 1003.59 600.511C1003.46 600.809 1002.94 601.105 1002.67 601.28C1002.16 601.603 1001.6 601.641 1001.02 601.641C1000.19 601.641 999.217 600.974 998.37 600.762C997.89 600.642 997.596 600.511 997.091 600.511C996.138 600.511 994.699 600.498 994.699 601.852C994.699 602.689 993.986 603.616 993.569 604.292C993.361 604.631 993.099 604.806 992.863 605.1C992.745 605.247 992.761 605.308 992.691 605.484C992.563 605.804 991.997 606.01 991.765 606.3C991.143 607.077 990.05 607.936 989.114 608.277C988.137 608.632 987.654 608.773 987.216 609.759C986.714 610.887 985.948 611.792 985.129 612.685C984.892 612.944 984.844 613.315 984.596 613.563C984.28 613.88 983.982 613.884 983.827 614.348" stroke="#4974AD" stroke-width="5" stroke-linecap="round"/>
<path d="M983.545 614.348C977.67 617.963 970.949 617.313 964.406 617.313C963.125 617.313 961.699 617.442 960.453 617.093C959.082 616.709 957.83 616.466 956.405 616.466C955.503 616.466 954.127 616.198 953.331 616.685C952.856 616.975 952.29 617.289 951.856 617.626C951.264 618.087 950.514 618.332 949.973 618.834C948.614 620.097 946.238 621.112 944.381 621.274C943.533 621.348 942.581 621.328 941.753 621.517C940.592 621.782 939.32 621.407 938.161 621.407C935.804 621.407 933.446 621.236 931.07 621.266C929.234 621.289 927.634 622.023 926.003 622.741C925.204 623.092 924.455 623.619 923.65 623.917C921.321 624.779 919.163 625.664 916.629 625.917C914.616 626.119 912.541 625.784 910.55 625.784C908.857 625.784 906.809 626.125 905.217 625.502C904.346 625.161 903.462 624.654 902.503 624.654C901.568 624.654 899.972 624.325 899.114 624.686C897.558 625.341 896.937 627.86 896.431 629.251C896.015 630.396 895.086 631.563 894.423 632.592C894.122 633.061 893.141 633.975 892.549 634.106C891.782 634.277 891.166 634.419 890.36 634.397C889.262 634.366 888.406 633.655 887.544 633.063C886.491 632.339 885.394 631.134 884.744 630.051C883.998 628.807 883.004 627.747 882.179 626.561C881.628 625.768 881.3 624.781 880.838 623.941C880.195 622.772 879.705 621.479 879.206 620.246C877.868 616.934 877.363 613.369 876.1 610.002C875.752 609.075 875.575 607.998 875.426 607.006C875.232 605.722 875.697 604.588 876.304 603.484C877.385 601.518 878.642 599.529 878.642 597.256C878.642 596.081 878.23 594.981 877.238 594.236C876.558 593.726 875.798 593.7 874.971 593.624C873.807 593.517 872.774 593.281 871.629 593.028C870.61 592.803 869.586 592.653 868.547 592.597C867.54 592.542 866.659 591.879 865.66 591.695C864.532 591.487 863.275 591.193 862.123 591.193C861.095 591.193 860.512 591.919 859.66 592.354C858.679 592.854 857.234 592.694 856.334 592.103C855.665 591.664 854.975 591.673 854.279 591.334C853.363 590.888 852.512 590.635 851.518 590.377C850.684 590.161 849.763 589.825 848.976 589.475C848.418 589.227 847.928 588.869 847.329 588.714C846.896 588.602 846.498 588.555 846.113 588.306C845.595 587.971 844.839 587.876 844.254 587.663C842.971 587.196 841.934 586.46 840.834 585.686C840.113 585.179 839.996 584.123 839.603 583.357C839.024 582.23 838.709 581.027 837.305 581.027C836.367 581.027 835.535 580.921 834.622 580.713C834.03 580.579 832.619 580.014 832.253 579.545C831.633 578.748 830.774 578.086 830.418 577.074C829.942 575.721 829.271 574.277 829.092 572.846C828.922 571.485 828.35 570.5 827.39 569.591C826.923 569.148 826.364 568.847 825.908 568.391C825.591 568.074 825.408 567.993 824.99 567.834C824.428 567.62 823.865 566.704 823.468 566.265C822.733 565.452 822.189 565.457 821.241 565.638C819.867 565.899 818.493 565.931 817.115 566.171C814.235 566.672 811.377 566.344 808.471 566.344" stroke="#4974AD" stroke-width="5" stroke-linecap="round"/>
<path d="M810.165 566.485C809.146 566.177 808.083 565.698 807.028 565.528C806.441 565.433 805.835 565.427 805.255 565.324C804.675 565.221 804.055 565.283 803.498 565.104C802.463 564.772 801.287 564.525 800.211 564.359C799.298 564.219 798.463 563.943 797.529 563.943C795.933 563.943 794.221 564.109 792.658 563.771C789.83 563.16 786.789 563.84 784.037 562.877C782.491 562.335 781.237 560.712 780.092 559.566C779.819 559.294 779.654 559.051 779.464 558.719C779.254 558.35 778.735 558.245 778.57 557.841C778.234 557.017 777.464 556.162 776.719 555.684C776.127 555.304 775.747 554.44 775.284 553.919C774.493 553.029 773.649 552.573 772.703 551.88C771.527 551.017 770.079 550.672 768.593 550.672C767.67 550.672 766.408 550.442 765.549 550.813C764.876 551.104 764.204 550.937 763.541 551.127C761.82 551.618 760.117 552.119 758.694 553.284C757.551 554.219 756.144 554.802 754.968 555.684C754.645 555.926 754.539 556.185 754.129 556.39C753.741 556.584 753.31 556.996 753.007 557.3C752.418 557.889 751.707 558.322 751.117 558.892C750.325 559.656 749.426 560.304 748.466 560.837C747.422 561.417 746.592 562.339 745.501 562.884C744.129 563.57 742.071 563.951 740.559 563.551C739.225 563.198 737.779 561.168 736.182 561.967C735.004 562.556 733.878 563.317 732.794 564.014C730.693 565.364 728.451 566.048 726.024 566.547C724.908 566.777 723.916 566.897 722.824 567.261C721.613 567.665 720.511 568.209 719.412 568.854C718.577 569.343 717.535 569.45 716.588 569.45C716.069 569.45 715.282 569.598 714.831 569.309C713.615 568.527 712.508 566.626 710.901 566.626C709.737 566.626 708.718 566.94 707.599 567.253C705.221 567.919 702.84 568.58 700.555 569.56C698.307 570.523 695.816 571.501 693.323 571.701C692.332 571.78 691.339 571.91 690.351 571.983C689.485 572.047 688.626 571.85 687.754 571.85C685.259 571.85 683.079 572.39 680.585 571.771C679.729 571.559 679.339 571.099 678.718 570.501C678.113 569.917 677.356 569.459 676.679 568.963C676.15 568.576 675.441 568.35 675.079 567.787C674.779 567.32 674.637 566.843 674.483 566.312C674.292 565.657 673.825 565.266 673.777 564.618C673.721 563.86 672.578 563.379 671.941 563.237C671.032 563.035 670.336 562.814 669.392 562.814C668.579 562.814 667.709 562.871 666.945 562.531C666.249 562.222 665.743 561.17 665.188 560.649C664.685 560.178 664.741 558.819 664.741 558.155C664.741 557.355 664.741 556.554 664.741 555.754C664.741 554.627 663.817 553.477 663.031 552.727C662.605 552.32 661.926 552.249 661.423 551.942C661.03 551.703 660.698 551.519 660.23 551.519C659.47 551.519 658.41 551.197 657.681 550.954" stroke="#4974AD" stroke-width="5" stroke-linecap="round"/>
<path d="M656.286 549.5C653.194 547.791 650.464 545.639 647.392 543.932C646.32 543.337 645.559 542.192 644.493 541.495C643.268 540.694 641.699 540.117 640.639 539.057C639.374 537.792 638.49 535.589 636.785 534.907C635.839 534.528 634.85 531.88 634.347 531.052C633.455 529.582 632.528 527.752 631.91 526.144C630.984 523.737 628.664 521.627 628.105 519.111C627.56 516.662 625.647 514.236 624.135 512.292C622.026 509.581 622.412 506.012 621.451 502.937C620.528 499.984 619.814 496.506 618.173 493.927C616.711 491.629 617.448 487.522 617.448 484.803C617.448 483.182 617.575 481.134 618.107 479.598C618.541 478.344 619.227 477.366 619.227 475.974C619.227 473.228 617.357 470.711 615.439 468.793C613.08 466.435 609.851 466.364 606.644 466.191C603.012 465.994 600.216 464.663 597.436 462.501C596.535 461.801 593.517 462.337 592.413 462.337C591.227 462.337 590.041 462.337 588.855 462.337C587.016 462.337 585.434 461.599 583.93 460.723C582.83 460.081 581.442 459.792 580.159 459.438C578.835 459.073 577.928 459.628 576.766 460.031C574.609 460.777 570.713 460.496 569.057 459.141C568.391 458.596 566.383 458.483 565.566 458.483C564.2 458.483 563.599 458.605 562.897 459.833C561.688 461.949 557.904 462.337 555.799 462.337C554.456 462.337 552.913 462.559 551.747 462.04C550.49 461.482 548.446 460.261 547.053 460.261C544.307 460.261 540.593 459.399 538.142 458.038C537.208 457.519 536.265 457.593 535.177 457.593C534.102 457.593 531.785 456.515 531.043 455.814C530.188 455.007 529.423 454.069 528.737 453.212C528.077 452.387 528.325 451.411 527.98 450.412C527.688 449.571 527.406 448.364 526.86 447.661C526.441 447.124 526.452 446.279 526.069 445.8C525.716 445.359 524.71 443.82 524.652 443.362C524.548 442.53 523.64 441.652 523.104 441.057C522.34 440.207 521.926 439.154 521.095 438.322C519.972 437.2 518.513 436.732 517.372 435.654C516.769 435.084 514.887 434.941 513.979 434.617C511.362 433.682 508.785 433.875 505.975 433.875C504.713 433.875 502.834 434.25 501.676 434.765C500.27 435.389 498.541 435.409 497.229 436.115C496.381 436.572 494.605 437.433 493.671 437.433C492.352 437.433 492.297 438.948 491.316 439.508C491.018 439.678 490.134 441.878 489.965 442.341C489.496 443.632 488.751 445.038 487.824 445.965C486.985 446.803 486.834 447.941 485.518 448.106C484.284 448.26 483.529 449.885 481.96 449.885C480.479 449.885 479.397 449.943 478.106 449.226C476.701 448.446 475.518 446.967 474.417 445.866C473.862 445.311 473.288 443.123 472.918 442.308C472.415 441.201 472.286 440.06 471.732 439.064C471.229 438.159 471.176 437.226 470.53 436.395C469.392 434.932 468.4 432.122 466.544 431.504" stroke="#4974AD" stroke-width="5" stroke-linecap="round"/>
<path d="M465.951 430.614C464.819 429.482 463.709 429.025 462.69 427.946C461.733 426.933 460.83 426.147 459.791 425.212C458.654 424.189 457.561 423.262 456.167 422.675C455.059 422.209 453.992 421.121 452.758 420.847C451.458 420.558 450.549 419.712 449.184 419.348C447.592 418.924 446.399 418.704 445.198 417.569C444.581 416.987 443.545 416.444 442.826 416.021C441.845 415.444 440.886 414.562 440.01 413.88C437.851 412.201 434.93 412.233 432.285 412.233C430.938 412.233 430.08 412.284 429.04 411.475C427.967 410.641 426.986 409.106 425.927 408.445C424.758 407.714 424.504 406.066 423.555 405.117C422.763 404.325 421.896 403.728 421.167 402.877C420.37 401.948 418.978 401.623 418.367 400.522C417.952 399.774 416.087 399.22 415.32 398.529C414.607 397.888 412.937 397.706 411.993 397.706C410.535 397.706 409.802 397.821 408.732 398.892C407.128 400.495 406.064 403.782 405.783 406.023C405.585 407.607 405.332 410.812 405.932 412.183C406.338 413.112 407.314 415.371 408.139 415.856C409.388 416.591 409.817 417.765 410.807 418.755C411.981 419.929 413.237 421.696 413.904 423.219C414.565 424.73 414.661 425.891 414.661 427.534C414.661 429.597 414.958 431.575 414.958 433.645C414.958 435.468 414.27 436.908 414.068 438.619C414 439.198 411.909 440.909 411.565 441.007C410.642 441.271 410.333 444.304 410.231 445.125C410.099 446.174 410.206 448.727 409.555 449.522C408.25 451.118 405.332 452.881 404.878 454.925C404.263 457.692 403.161 460.394 400.875 462.172C399.88 462.946 397.466 464.133 397.466 465.45C397.466 466.433 396.687 467.514 396.049 468.2C395.359 468.944 395.437 470.021 394.501 470.572C394.004 470.864 393.772 471.344 393.463 471.824C393.024 472.507 392.389 472.75 391.833 473.306C390.576 474.563 389.41 475.397 387.814 476.123C386.45 476.743 385.475 476.864 383.976 476.864C382.139 476.864 381.652 477.865 380.567 479.071C379.108 480.692 378.625 482.614 377.372 484.374C376.172 486.059 374.679 486.936 373.221 488.36C371.733 489.814 370.698 490.186 370.124 492.05C369.431 494.302 369.444 496.249 370.322 498.506C370.682 499.432 370.617 500.516 370.849 501.471C371.106 502.526 371.72 503.538 371.953 504.584C372.227 505.82 368.599 507.769 367.753 508.29C366.154 509.274 364.782 510.495 363.009 511.255C361.574 511.87 359.99 512.795 358.793 513.775C357.823 514.568 356.227 515.461 355.943 516.739C355.649 518.064 354.207 518.073 353.143 518.073C352.299 518.073 351.09 515.576 350.458 514.944C349.427 513.912 348.664 512.637 347.362 511.913C345.71 510.996 343.797 510.958 341.861 510.958C340.39 510.958 340.38 512.044 339.522 512.902C339.159 513.265 339.458 513.783 338.995 514.153C338.511 514.541 337.958 514.303 337.447 514.961C336.443 516.251 334.807 516.509 334.91 518.37C334.998 519.952 338.943 522.355 336.244 523.855C333.818 525.203 331.231 526.245 328.388 526.078C328.066 526.059 327.378 525.661 327.07 525.485C326.675 525.26 325.828 524.801 325.489 524.53C324.786 523.968 323.925 522.552 323.496 521.779C322.852 520.62 323.009 519.494 322.458 518.255C322.013 517.253 321.292 516.62 320.679 515.702" stroke="#4974AD" stroke-width="5" stroke-linecap="round"/>
<path d="M319.493 516.591C317.72 515.301 314.534 515.109 312.378 515.109C311.415 515.109 310.755 514.435 309.858 514.236C308.798 514 306.887 513.804 306.152 512.885C305.559 512.144 304.755 511.676 304.077 510.958C303.463 510.308 302.871 509.638 302.002 509.328C300.722 508.871 299.934 507.993 298.51 507.993C297.082 507.993 295.655 507.993 294.227 507.993C292.915 507.993 291.945 508.061 290.884 507.236C290.19 506.696 288.366 506.184 288.002 505.622C287.482 504.818 286.048 504.361 285.234 503.991C284.733 503.763 284.214 503.759 283.736 503.546C282.907 503.178 282.1 502.78 281.232 502.509C279.877 502.085 278.765 501.521 277.328 501.24C275.724 500.926 273.986 501.265 272.354 501.175C270.498 501.071 268.281 499.265 266.573 498.506C264.797 497.717 262.466 495.084 261.681 493.318C260.8 491.335 260.406 489.188 259.54 487.24C257.758 483.23 257.759 478.537 257.531 474.196C257.395 471.616 256.938 469.12 256.938 466.487C256.938 464.886 257.557 461.494 256.79 460.113C256.35 459.322 256.256 458.251 255.159 458.186C254.108 458.124 253.091 457.113 252.194 456.638C250.163 455.562 247.555 454.035 245.227 454.035C243.624 454.035 241.97 453.539 240.335 453.442C240.17 453.433 238.31 451.914 238.276 451.795C237.472 448.979 234.999 446.793 234.999 443.659C234.999 441.336 236.754 439.523 237.733 437.565C238.906 435.218 240.039 431.639 240.039 429C240.039 428.212 240.294 426.888 239.973 426.167C239.389 424.854 238.447 423.142 238.244 421.72C237.935 419.563 236.122 417.774 236.844 415.428C237.738 412.52 239.286 410.327 240.78 407.637C241.724 405.939 242.191 402.026 241.159 400.374C240.866 399.905 240.171 400.112 239.709 400.061C238.239 399.898 236.863 399.144 235.411 398.892C233.822 398.615 232.44 398.098 230.914 397.772C227.423 397.023 223.587 394.66 220.933 392.386C219.253 390.946 216.946 389.612 215.563 387.691C214.368 386.031 213.38 384.469 212.335 382.569C211.072 380.272 209.843 377.564 207.723 375.898C207.116 375.421 206.767 374.604 206.175 374.054C205.317 373.257 204.257 373.395 203.177 373.395C201.767 373.395 200.464 373.177 199.126 373.098C198.273 373.048 197.075 371.345 196.589 370.727C195.089 368.817 192.915 367.411 191.417 365.538C189.423 363.045 186.563 360.906 185.488 357.682" stroke="#4974AD" stroke-width="5" stroke-linecap="round"/>
<path d="M50 252.434C51.9201 252.023 53.8334 251.248 55.7812 251.248C57.5092 251.248 57.798 251.895 59.0424 252.862C61.0917 254.456 63.822 256.247 65.4166 258.43C67.308 261.018 70.444 263.997 73.7343 263.997C75.3827 263.997 77.0445 264.055 78.6919 263.997C79.5418 263.966 83.4652 262.639 83.8637 261.921C84.6109 260.576 85.2802 259.179 85.2802 257.622C85.2802 256.658 84.9807 255.106 85.5767 254.361C86.2856 253.475 89.1517 253.84 89.925 254.279C91.8038 255.346 93.7712 255.56 95.6568 256.354C97.5013 257.131 100.488 256.585 102.476 256.585C104.382 256.585 105.348 255.913 107.071 255.251C108.259 254.794 109.54 254.429 110.48 253.488C111.304 252.664 112.623 251.669 112.918 250.524C113.204 249.412 113.426 248.3 114.038 247.328C114.487 246.616 114.306 245.872 114.763 245.154C115.252 244.386 115.289 242.702 115.52 241.778C115.907 240.233 116.113 239.117 116.113 237.462C116.113 234.877 115.673 231.893 118.189 230.561C120.434 229.373 124.388 230.381 126.753 230.775C128.735 231.105 131.599 233.207 133.177 234.498C134.813 235.836 137.257 236.425 138.942 237.676C140.114 238.547 142.608 238.92 143.323 240.279C144.173 241.894 144.575 242.894 144.575 244.709C144.575 246.819 144.588 249.187 145.168 251.215C145.442 252.175 146.318 253.602 146.354 254.575C146.394 255.669 146.91 256.608 146.946 257.705C146.987 258.912 146.831 260.093 147.177 261.262C147.852 263.542 145.076 266.283 143.718 267.834C141.994 269.805 140.848 272.446 138.925 274.208C137.002 275.971 135.8 278.655 133.902 280.418C133.059 281.2 133.061 282.017 132.568 283.004C131.737 284.666 131.03 286.202 130.492 287.994C129.213 292.258 126.995 295.895 125.008 299.87C123.833 302.218 123.048 304.84 122.191 307.315C121.668 308.827 121.45 310.484 121.45 312.075C121.45 313.273 121.811 313.519 122.043 314.446C122.405 315.897 122.932 317.387 122.932 318.844C122.932 321.971 121.297 324.223 120.791 327.145C120.508 328.781 120.079 330.45 119.506 332.004C119.288 332.596 118.644 332.879 118.502 333.519C118.036 335.614 116.008 337.442 115.158 339.482C114.585 340.857 114.519 342.866 114.335 344.341C113.861 348.13 111.542 351.408 109.887 354.717C108.772 356.949 107.256 358.85 105.737 360.811C104.759 362.073 103.858 363.371 102.476 364.138C102.16 364.314 102.189 364.5 101.998 364.797C101.571 365.461 100.645 365.561 100.12 366.164C98.8104 367.671 98.0157 369.163 97.1227 370.875C96.6755 371.732 94.2251 377.837 95.5085 378.122C97.0233 378.459 98.6073 378.227 100.104 378.797C101.888 379.477 103.505 378.709 105.21 378.204C107.283 377.59 107.907 376.003 110.332 376.376C112.701 376.741 114.368 377.284 116.542 375.454C120.041 372.507 123.417 368.058 128.499 368.058C134.434 368.058 139.402 371.563 143.834 375.009C145.046 375.952 146.483 374.98 147.671 374.515C149.371 373.85 150.343 373.224 151.163 371.616C151.904 370.162 152.766 368.483 153.699 367.169C154.57 365.944 155.469 365.084 155.907 363.611C156.289 362.327 157.514 361.606 157.932 360.35C158.276 359.319 159.236 358.182 159.827 357.254C160.247 356.593 160.375 356.091 160.881 355.458C161.055 355.24 162.497 354.738 162.824 354.585C165.216 353.469 165.771 353.189 166.283 350.501C166.64 348.629 166.593 347.374 168.227 346.284C169.203 345.633 169.907 345.23 171.093 345.23C171.919 345.23 172.018 345.638 172.608 345.807C173.234 345.985 174.072 346.119 174.733 346.119C176.03 346.119 177.963 345.69 179.147 345.872C179.802 345.973 180.386 346.69 180.942 347.009C181.637 347.408 182.409 347.61 183.116 347.964C184.24 348.526 185.42 348.74 186.608 349.15C187.359 349.409 190.502 351.414 189.573 352.576C187.825 354.76 183.563 357.021 184.895 360.35" stroke="#4974AD" stroke-width="5" stroke-linecap="round"/>
<rect x="1382.89" y="508.959" width="5" height="5" rx="2.5" fill="black"/>
<rect x="1364.89" y="510.959" width="5" height="5" rx="2.5" fill="black"/>
<rect x="1352.89" y="508.959" width="5" height="5" rx="2.5" fill="black"/>
<rect x="1347.89" y="495.959" width="5" height="5" rx="2.5" fill="black"/>
<rect x="1333.89" y="487.959" width="5" height="5" rx="2.5" fill="black"/>
<rect x="1328.89" y="468.959" width="5" height="5" rx="2.5" fill="black"/>
<rect x="1312.89" y="451.959" width="5" height="5" rx="2.5" fill="black"/>
<rect x="1312.89" y="438.959" width="5" height="5" rx="2.5" fill="black"/>
<rect x="1303.89" y="412.959" width="5" height="5" rx="2.5" fill="black"/>
<rect x="1266.89" y="394.959" width="5" height="5" rx="2.5" fill="black"/>
<rect x="1229.89" y="401.959" width="5" height="5" rx="2.5" fill="black"/>
<rect x="1201.89" y="403.959" width="5" height="5" rx="2.5" fill="black"/>
<rect x="1191.89" y="412.959" width="5" height="5" rx="2.5" fill="black"/>
<rect x="1156.89" y="473.959" width="5" height="5" rx="2.5" fill="black"/>
<rect x="1081.89" y="534.959" width="5" height="5" rx="2.5" fill="black"/>
<rect x="1081.89" y="569.959" width="5" height="5" rx="2.5" fill="black"/>
<rect x="986.885" y="601.959" width="5" height="5" rx="2.5" fill="black"/>
<rect x="931.885" y="613.959" width="5" height="5" rx="2.5" fill="black"/>
<rect x="897.885" y="618.959" width="5" height="5" rx="2.5" fill="black"/>
<rect x="877.885" y="589.959" width="5" height="5" rx="2.5" fill="black"/>
<rect x="868.885" y="594.959" width="5" height="5" rx="2.5" fill="black"/>
<rect x="795.885" y="564.959" width="5" height="5" rx="2.5" fill="black"/>
<rect x="765.885" y="549.959" width="5" height="5" rx="2.5" fill="black"/>
<rect x="697.885" y="574.959" width="5" height="5" rx="2.5" fill="black"/>
<rect x="653.885" y="549.959" width="5" height="5" rx="2.5" fill="black"/>
<rect x="567.885" y="607.959" width="5" height="5" rx="2.5" fill="black"/>
<rect x="465.885" y="679.959" width="5" height="5" rx="2.5" fill="black"/>
<rect x="419.885" y="645.959" width="5" height="5" rx="2.5" fill="black"/>
<rect x="372.885" y="594.959" width="5" height="5" rx="2.5" fill="black"/>
<rect x="634.885" y="539.959" width="5" height="5" rx="2.5" fill="black"/>
<rect x="517.885" y="433.959" width="5" height="5" rx="2.5" fill="black"/>
<rect x="472.885" y="444.959" width="5" height="5" rx="2.5" fill="black"/>
<rect x="426.885" y="409.959" width="5" height="5" rx="2.5" fill="black"/>
<rect x="407.885" y="392.959" width="5" height="5" rx="2.5" fill="black"/>
<rect x="409.885" y="424.959" width="5" height="5" rx="2.5" fill="black"/>
<rect x="402.885" y="459.959" width="5" height="5" rx="2.5" fill="black"/>
<rect x="380.885" y="475.959" width="5" height="5" rx="2.5" fill="black"/>
<rect x="297.885" y="506.959" width="5" height="5" rx="2.5" fill="black"/>
<rect x="270.885" y="495.959" width="5" height="5" rx="2.5" fill="black"/>
<rect x="237.885" y="447.959" width="5" height="5" rx="2.5" fill="black"/>
<rect x="221.885" y="389.959" width="5" height="5" rx="2.5" fill="black"/>
<rect x="207.885" y="382.959" width="5" height="5" rx="2.5" fill="black"/>
<rect x="202.885" y="372.959" width="5" height="5" rx="2.5" fill="black"/>
<rect x="93.8855" y="370.959" width="5" height="5" rx="2.5" fill="black"/>
<rect x="137.885" y="234.959" width="5" height="5" rx="2.5" fill="black"/>
<rect x="84.8855" y="247.959" width="5" height="5" rx="2.5" fill="black"/>
<rect x="51.8855" y="247.959" width="5" height="5" rx="2.5" fill="black"/>
</svg>
