<svg width="206" height="117" viewBox="0 0 206 117" fill="none" xmlns="http://www.w3.org/2000/svg">
<path d="M203.233 3C203.606 5.61203 200.311 8.27953 198.541 9.69552C196.792 11.0947 193.641 10.6087 191.608 10.3545C191.164 10.299 190.913 9.76622 190.527 9.65598C190.018 9.51062 189.165 9.40555 188.642 9.40555C187.866 9.40555 187.174 9.61462 186.441 9.6428C185.767 9.66875 185.383 10.0403 184.728 10.1173C183.656 10.2434 182.476 10.3545 181.288 10.3545C179.383 10.3545 178.991 11.204 177.953 12.7138C177.041 14.0408 176.962 15.3155 176.24 16.7601C175.54 18.1591 175.006 19.1275 173.92 20.2133C172.671 21.4625 171.859 22.2689 170.256 22.9811C169.517 23.3096 169.187 22.9284 168.477 22.9284C167.449 22.9284 166.421 22.9284 165.393 22.9284C163.592 22.9284 162.977 23.6944 161.478 24.4046C160.753 24.7482 160.139 25.1436 159.448 25.5381C159.137 25.7162 159.211 26.1388 158.961 26.2498C158.407 26.4958 157.98 26.8281 157.59 27.3042C156.756 28.323 156.221 29.3731 155.547 30.4674C154.878 31.554 153.731 32.1628 152.753 32.9453C150.56 34.6999 148.547 36.3372 146.769 38.5337C145.419 40.201 144.413 42.0112 143.316 43.8058C142.805 44.6422 142.682 45.2112 142.736 46.1782C142.787 47.1026 143.988 47.8757 144.212 48.8406C144.475 49.972 145.609 50.8904 145.807 51.9774C145.915 52.5716 146.684 53.5332 146.519 54.1126C146.305 54.8593 143.815 54.7293 143.263 55.6679C142.729 56.5758 141.935 57.2065 141.207 57.9349C140.718 58.4242 140.608 59.4551 140.126 60.0569C138.771 61.7509 138.155 64.0184 136.554 65.6189C133.659 68.5144 133.246 73.2448 133.246 77.1252C133.246 78.3215 133.676 79.3592 133.721 80.5257C133.733 80.8535 134.237 82.5388 134.432 82.6608C134.739 82.8525 134.77 83.1322 134.96 83.4253C135.149 83.7185 135.849 84.0245 136.146 84.3215C137.008 85.1837 137.824 86.0629 138.518 86.9312C138.865 87.3644 138.786 88.5304 138.69 89.1059C138.63 89.4612 136.922 89.7671 136.568 89.8177C135.709 89.9403 133.495 90.1446 132.825 89.5409C132.272 89.0434 132.174 88.0718 131.704 87.4452C130.802 86.2419 130.551 86.5119 129.081 87.2212C128.179 87.6567 126.048 87.9744 125.417 88.7633C124.933 89.3688 123.595 88.1719 123.177 87.9329C122.905 87.7778 122.733 87.0797 122.623 86.7994C122.415 86.2694 122.014 86.123 121.674 85.745C121.285 85.3131 121.309 83.967 121.437 83.4253C121.631 82.5995 122.094 81.581 121.845 80.7102C121.701 80.205 119.664 80.8156 119.341 80.8156C118.103 80.8156 117.607 80.2281 116.824 79.4449C116.503 79.1242 115.688 78.0256 115.163 78.2587C113.554 78.9737 112.606 82.7513 112.606 84.3874C112.606 85.5452 112.151 86.5386 112.132 87.7484C112.111 89.077 111.681 89.2678 110.998 90.1208C109.64 91.8186 109.522 93.5151 109.522 95.7619C109.522 96.837 109.437 97.9297 109.707 98.9779C110 100.12 110.471 101.015 110.471 102.22C110.471 103.233 110.721 104.247 109.996 105.014C109.303 105.748 108.441 106.128 107.861 106.965C107.223 107.888 106.912 107.962 106.912 109.206C106.912 110.08 107.421 112.719 106.556 113.199C105.635 113.711 102.166 114.833 101.271 113.74C100.378 112.649 96.1192 105.48 94.3385 108.151C93.9078 108.797 93.1003 109.506 92.915 110.247C92.6365 111.361 92.2495 111.623 91.3597 112.132C89.9156 112.957 88.4645 112.292 87.8802 110.655C87.1573 108.631 86.1934 106.616 85.3232 104.659C84.483 102.768 81.0083 101.681 79.1681 100.876C78.4591 100.566 78.2561 99.7635 77.916 99.0833C77.3084 97.8682 77.3401 97.9454 76.1235 97.2381C75.3001 96.7594 74.4851 96.3642 73.672 95.8674C73.0242 95.4715 71.3454 94.4646 71.0887 93.7585C70.836 93.0638 70.1618 92.4919 69.6652 91.966C69.2427 91.5186 69.1453 89.702 69.1907 89.0664C69.2631 88.0534 70.182 87.3875 70.4956 86.5094C70.7734 85.7316 70.8809 83.4811 70.2451 82.8454C69.5535 82.1537 67.6588 82.4763 66.8183 82.4763C65.5677 82.4763 64.3803 82.4722 63.1542 82.6608C60.5871 83.0558 57.5278 81.2737 55.5493 79.7348C54.427 78.862 54.4817 78.6193 54.4817 77.1779C54.4817 76.3585 54.9979 76.1105 54.9562 75.359C54.8805 73.9972 52.2472 74.4494 51.4766 74.3573C50.2605 74.2121 49.9076 73.9121 49.5523 72.7494C49.3265 72.0103 48.8294 70.6142 47.9575 70.6142C46.2746 70.6142 44.6798 71.3259 42.9754 71.3259C42.1518 71.3259 40.3692 71.7214 39.9571 70.8514C39.3619 69.5947 39.2128 68.1987 38.8237 66.871C37.9851 64.0101 37.5264 61.2227 35.9504 58.6334C35.1088 57.2508 33.91 56.0738 32.6553 55.088C31.6844 54.3251 30.6308 53.2453 29.5448 52.7024C28.2025 52.0312 27.1709 51.7427 25.828 51.3448C24.0603 50.821 23.2448 48.3821 22.2167 46.9426C21.2778 45.6282 20.3895 44.5243 19.1984 43.4367C18.7696 43.0452 17.8454 41.9342 17.2346 41.9342C15.9062 41.9342 14.5433 42.1218 13.241 42.3823C12.3938 42.5517 11.8437 43.094 10.9608 43.094C9.28465 43.094 8.59113 42.6418 7.48125 41.5124C6.46133 40.4746 5.30379 39.3644 4.60798 38.1119C4.22271 37.4185 3.2694 37.0222 3 36.214" stroke="#4974AD" stroke-width="5" stroke-linecap="round"/>
</svg>
