<svg width="23" height="11" viewBox="0 0 23 11" fill="none" xmlns="http://www.w3.org/2000/svg">
<path d="M17.8537 3.19613L17.988 3.282C18.8693 3.84563 19.3729 4.69619 19.6542 5.37183C19.7898 5.69759 19.878 5.99262 19.9334 6.2131L20.8987 6.26065C21.0308 6.26715 21.1387 6.22164 21.2055 6.16036C21.2677 6.10338 21.3015 6.0287 21.2935 5.93267C21.208 4.90495 20.7779 3.09246 18.9349 1.52715C18.8579 1.46174 18.7487 1.42361 18.6253 1.42952L2.17202 2.21674C1.99438 2.22523 1.83463 2.32745 1.75247 2.48518L0.910848 4.10092C0.838339 4.24012 0.835403 4.40529 0.902915 4.54698L0.451538 4.76206L0.902917 4.54698L1.44258 5.67957M17.8537 3.19613L1.44269 5.6798L1.44258 5.67957M17.8537 3.19613L17.6945 3.20381L4.31342 3.84985C3.65367 3.8817 3.20338 4.32069 2.96175 4.80253C2.72186 5.28093 2.64438 5.87094 2.74851 6.39447C2.75916 6.44799 2.76643 6.4989 2.77041 6.54734C2.58719 6.45181 2.39111 6.34741 2.20268 6.23865C1.99223 6.11718 1.80275 5.99675 1.65714 5.88432C1.58467 5.82837 1.52991 5.7796 1.49128 5.73901C1.45687 5.70284 1.4447 5.68297 1.44279 5.67985C1.44251 5.67938 1.44245 5.67929 1.44258 5.67957M17.8537 3.19613L1.44258 5.67957M3.63992 7.31401C3.79965 6.94053 3.79869 6.54829 3.7293 6.19939C3.66807 5.89155 3.71657 5.52816 3.85566 5.25079C3.99302 4.97687 4.17472 4.85771 4.36164 4.84868L17.2495 4.22646L17.5329 8.89598L4.5533 8.82074C4.34655 8.81954 4.16192 8.69128 4.08867 8.498L3.63992 7.31401ZM18.9699 6.48242C18.9817 6.53078 18.9915 6.57396 18.9994 6.61113L18.4571 7.61698L18.2954 4.95381C18.4791 5.21649 18.6216 5.49351 18.731 5.7562C18.8493 6.04047 18.9245 6.29755 18.9699 6.48242Z" fill="#D48051" stroke="#3A332D"/>
</svg>
