<svg width="22" height="8" viewBox="0 0 22 8" fill="none" xmlns="http://www.w3.org/2000/svg">
<path d="M17.7484 5.43397L17.6331 5.5L17.5001 5.5L3.90428 5.5C2.84683 5.5 2.20969 4.47778 2.27771 3.58508C2.30014 3.29059 2.29247 3.00333 2.24276 2.74643C2.14114 2.81101 2.03242 2.88071 1.92417 2.95089C1.72918 3.0773 1.53888 3.20321 1.39499 3.30282C1.32371 3.35217 1.26832 3.39197 1.2308 3.42062L0.570001 4.52189L1.67386 6.72951C1.75779 6.89736 1.92864 7.00408 2.1163 7.00587L18.4394 7.16158C18.5456 7.1626 18.6441 7.13032 18.7199 7.07425C20.5104 5.74887 21.1437 4.5067 21.3707 3.76991C21.3934 3.69643 21.3795 3.64678 21.3342 3.59469C21.2776 3.52949 21.1636 3.46116 21.0064 3.44201C20.478 3.37762 20.0709 3.26935 19.7802 3.16783C19.7133 3.31506 19.6275 3.48512 19.5194 3.66772C19.1852 4.23194 18.6291 4.93004 17.7484 5.43397ZM18.9434 2.58069C18.9464 2.57311 18.9493 2.5657 18.9521 2.55847L18.3544 1.56238C18.3495 1.61329 18.3445 1.66508 18.3394 1.71767C18.2774 2.35641 18.2022 3.11495 18.1232 3.87473C18.3491 3.63353 18.5247 3.38484 18.659 3.15811C18.7951 2.9283 18.8866 2.72456 18.9434 2.58069ZM19.0176 2.36878L19.0175 2.36923L19.0176 2.36878ZM17.4513 0.5L4.0963 0.499998C3.91157 0.499998 3.74678 0.600547 3.66496 0.757611C3.4782 1.11615 3.23726 1.58987 3.05296 1.98962C3.28992 2.53996 3.31326 3.15648 3.27482 3.66105C3.23824 4.1411 3.58499 4.5 3.90428 4.5L17.0516 4.5C17.1574 3.51535 17.2622 2.46463 17.3441 1.62105C17.3873 1.17595 17.4241 0.788847 17.4513 0.5ZM1.19857 3.44625C1.19148 3.45252 1.19367 3.45135 1.20135 3.44388C1.19996 3.44504 1.19905 3.44582 1.19857 3.44625Z" fill="#D48051" stroke="#3A332D"/>
</svg>
