<svg width="30" height="10" viewBox="0 0 30 10" fill="none" xmlns="http://www.w3.org/2000/svg">
<path d="M28.256 6.24037L28.9232 6.21329L28.7094 5.58068L27.8077 2.91311L28.4472 2.79314L29.4959 5.81321L29.3867 8.04627L5.27592 9.49205C4.80394 9.21226 4.28233 8.76057 3.75047 8.20824C3.17844 7.61418 2.61803 6.92863 2.12275 6.27402C1.63685 5.63182 1.21805 5.02528 0.917596 4.57414H3.02493L5.04699 6.9877L5.20488 7.17616L5.45054 7.16618L28.256 6.24037ZM26.6959 2.74661L27.5482 5.26828L5.90694 6.14683L5.68098 1.22205L25.2546 0.510013L26.6959 2.74661ZM4.86294 5.21086L3.86492 4.01961L4.73801 2.48789L4.86294 5.21086Z" fill="#D4B48B" stroke="#3A332D"/>
</svg>
