<svg width="22" height="8" viewBox="0 0 22 8" fill="none" xmlns="http://www.w3.org/2000/svg">
<path d="M17.7484 2.23064L17.6331 2.16461L17.5001 2.16461L3.90428 2.16461C2.84683 2.16461 2.20969 3.18683 2.27771 4.07954C2.30014 4.37402 2.29247 4.66128 2.24276 4.91818C2.14114 4.8536 2.03242 4.7839 1.92417 4.71373C1.72918 4.58731 1.53888 4.46141 1.39499 4.36179C1.32371 4.31244 1.26832 4.27264 1.2308 4.24399L0.570001 3.14272L1.67386 0.935105C1.75779 0.767253 1.92864 0.660533 2.1163 0.658743L18.4394 0.503029C18.5456 0.502016 18.6441 0.534289 18.7199 0.59036C20.5104 1.91575 21.1437 3.15792 21.3707 3.8947C21.3934 3.96818 21.3795 4.01783 21.3342 4.06992C21.2776 4.13513 21.1636 4.20345 21.0064 4.22261C20.478 4.287 20.0709 4.39527 19.7802 4.49678C19.7133 4.34955 19.6275 4.1795 19.5194 3.99689C19.1852 3.43267 18.6291 2.73458 17.7484 2.23064ZM18.9434 5.08392C18.9464 5.0915 18.9493 5.09891 18.9521 5.10615L18.3544 6.10223C18.3495 6.05132 18.3445 5.99953 18.3394 5.94694C18.2774 5.3082 18.2022 4.54966 18.1232 3.78988C18.3491 4.03108 18.5247 4.27977 18.659 4.5065C18.7951 4.73632 18.8866 4.94006 18.9434 5.08392ZM19.0176 5.29584L19.0175 5.29538L19.0176 5.29584ZM17.4513 7.16461L4.0963 7.16461C3.91157 7.16461 3.74678 7.06406 3.66496 6.907C3.4782 6.54846 3.23726 6.07475 3.05296 5.67499C3.28992 5.12465 3.31326 4.50814 3.27482 4.00357C3.23824 3.52352 3.58499 3.16461 3.90428 3.16461L17.0516 3.16461C17.1574 4.14926 17.2622 5.19998 17.3441 6.04356C17.3873 6.48866 17.4241 6.87577 17.4513 7.16461ZM1.19857 4.21836C1.19148 4.21209 1.19367 4.21326 1.20135 4.22073C1.19996 4.21957 1.19905 4.21879 1.19857 4.21836Z" fill="#D48051" stroke="#3A332D"/>
</svg>
