<svg width="23" height="22" viewBox="0 0 23 22" fill="none" xmlns="http://www.w3.org/2000/svg">
<path d="M7.61031 16.7935L7.45454 16.8273C6.43216 17.049 5.47538 16.8008 4.79953 16.52C4.47365 16.3847 4.20311 16.2376 4.00839 16.1203L3.29031 16.7672C3.19206 16.8557 3.14763 16.9641 3.14341 17.0547C3.13948 17.1389 3.16821 17.2157 3.24159 17.2781C4.02683 17.9467 5.60976 18.9287 8.02033 18.7393C8.12105 18.7314 8.2254 18.6815 8.30876 18.5902L19.4214 6.4314C19.5414 6.30012 19.5826 6.115 19.5297 5.94522L18.9873 4.20604C18.9406 4.0562 18.8262 3.937 18.6784 3.88412L18.8469 3.41335L18.6784 3.88412L17.4972 3.46145M7.61031 16.7935L17.4969 3.46137L17.4972 3.46145M7.61031 16.7935L7.7178 16.6758L16.7514 6.78312C17.1968 6.29536 17.2066 5.66657 17.0382 5.15451C16.871 4.64611 16.51 4.17309 16.067 3.87525C16.0217 3.8448 15.9807 3.81383 15.9437 3.78229C16.141 3.72085 16.3536 3.65664 16.564 3.60091C16.7988 3.53867 17.0181 3.49046 17.2006 3.46753C17.2915 3.45612 17.3647 3.45209 17.4207 3.45364C17.4706 3.45503 17.4933 3.46054 17.4968 3.4614C17.4973 3.46153 17.4974 3.46156 17.4972 3.46145M7.61031 16.7935L17.4972 3.46145M14.7865 3.85167C14.9366 4.22914 15.2138 4.50662 15.509 4.70511C15.7695 4.88024 15.9913 5.17213 16.0883 5.4669C16.184 5.75799 16.1391 5.97061 16.013 6.1088L7.31237 15.6368L3.81908 12.5253L13.0765 3.42717C13.2239 3.28225 13.4453 3.24304 13.6335 3.32845L14.7865 3.85167ZM4.50176 15.25C4.45925 15.2241 4.42189 15.2003 4.39008 15.1795L4.06546 14.0839L6.05779 15.8585C5.74231 15.8017 5.44596 15.7057 5.18318 15.5966C4.89882 15.4784 4.66424 15.3491 4.50176 15.25Z" fill="#D48051" stroke="#3A332D"/>
</svg>
