<svg width="1080" height="337" viewBox="0 0 1080 337" fill="none" xmlns="http://www.w3.org/2000/svg">
<path d="M1076.56 242.719C1076.53 241.374 1075.66 240.316 1074.77 239.431C1074.48 239.141 1074.32 238.73 1074.05 238.425C1073.59 237.923 1073.13 237.695 1072.58 237.348C1072.42 237.241 1072.19 236.993 1072 236.957C1071.76 236.915 1071.36 236.932 1071.23 236.72C1070.96 236.299 1070.01 236.182 1069.59 236.028C1068.89 235.775 1068.2 235.447 1067.85 234.817C1067.69 234.526 1067.59 234.431 1067.55 234.079C1067.52 233.786 1067.23 233.609 1067.21 233.285C1067.2 232.946 1066.99 233.025 1066.89 232.772C1066.73 232.359 1066.5 231.984 1066.41 231.541C1066.23 230.743 1065.65 230.029 1065.31 229.273C1065.17 228.966 1065.05 228.947 1064.86 228.702C1064.69 228.489 1064.85 228.269 1064.56 228.093C1064.19 227.868 1064.01 227.404 1063.75 227.087C1062.7 225.771 1060.5 225.764 1059.03 225.247C1058.02 224.894 1056.94 224.297 1056.08 223.632C1055.78 223.396 1055.28 223.409 1055.01 223.196C1054.69 222.939 1054.15 222.488 1053.95 222.132C1053.57 221.478 1053.32 220.735 1052.85 220.114C1052.3 219.376 1052.39 218.079 1052.22 217.172C1052 215.94 1051.76 214.774 1050.94 213.813C1050.69 213.516 1050.02 213.345 1049.65 213.211C1049.13 213.023 1048.44 212.787 1048.01 212.435C1047.73 212.206 1047.27 212.019 1047.05 211.775C1046.64 211.319 1046.3 210.741 1045.93 210.294C1045.74 210.068 1045.65 209.588 1045.52 209.307C1045.24 208.643 1045.05 207.96 1044.72 207.301C1044.4 206.662 1044.16 206.202 1044.03 205.507C1043.74 203.877 1043.37 202.18 1042.64 200.661C1042.21 199.754 1041.51 198.463 1041.38 197.457C1041.33 197.133 1041.24 196.98 1041.09 196.687C1040.75 196.002 1040.19 195.068 1039.55 194.611C1038.74 194.027 1037.83 193.458 1037.22 192.765C1036.72 192.21 1036.06 191.387 1035.81 190.663C1035.37 189.404 1035.1 188.104 1035.03 186.766C1035 186.188 1035.03 185.601 1035.03 185.023C1035.03 184.446 1035.11 183.613 1034.89 183.074C1034.74 182.724 1034.33 182.328 1034.04 182.093C1033.61 181.745 1033.21 181.367 1032.79 181.004C1032.32 180.599 1031.8 180.296 1031.36 179.869C1031.22 179.737 1031.02 179.695 1030.9 179.587C1030.71 179.415 1030.61 179.151 1030.35 179.036C1030.08 178.913 1029.98 178.582 1029.73 178.408C1029.24 178.077 1029.27 177.819 1029.26 177.242C1029.25 176.631 1029.14 176.026 1029.14 175.402C1029.14 174.85 1028.85 174.748 1028.48 174.383C1027.99 173.915 1027.01 173.92 1026.43 173.55C1025.87 173.199 1025.68 172.943 1025.22 172.46C1024.72 171.935 1024.41 171.339 1024.12 170.666C1023.78 169.852 1023.25 169.112 1022.89 168.307C1022.77 168.047 1022.84 167.772 1022.68 167.525C1022.46 167.167 1022.1 166.641 1022 166.237C1021.87 165.706 1021.53 165.134 1021.53 164.59C1021.53 163.895 1022.2 163.47 1022.63 163.039C1023.29 162.379 1024.06 161.628 1024.39 160.718C1024.52 160.357 1024.56 159.045 1024.29 158.796C1023.86 158.399 1023.44 157.894 1023.03 157.462C1022.31 156.701 1021.51 155.966 1020.72 155.264C1020.41 154.989 1020.28 154.697 1019.91 154.514C1019.67 154.393 1019.5 154.113 1019.36 153.886C1019.11 153.462 1018.17 152.447 1017.78 152.271C1017.41 152.105 1016.99 151.839 1016.8 151.463M1017.61 151.923C1016.26 150.746 1014.85 149.417 1013 149.417C1012.28 149.417 1011.58 149.216 1010.89 149.216C1010.32 149.216 1009.59 149.16 1009.09 148.893C1007.95 148.296 1007.09 148.413 1006.26 147.233C1005.87 146.689 1005.35 146.241 1005.03 145.657C1004.67 145.008 1004.58 144.09 1004.35 143.379C1004.2 142.902 1003.97 142.141 1003.97 141.646C1003.97 141.107 1003.36 140.588 1002.92 140.393C1001.8 139.895 1000.59 140.121 999.428 139.914C998.491 139.747 997.519 139.954 996.61 139.541C996.41 139.45 996.223 139.346 996.008 139.285C995.81 139.228 995.894 138.732 995.83 138.588C995.595 138.059 995.531 137.501 995.273 136.984C994.984 136.406 994.266 136.583 993.697 136.583C993.059 136.583 992.429 136.807 991.797 136.884C990.935 136.988 990.076 137.053 989.213 137.162C988.688 137.229 988.138 137.185 987.609 137.185C986.566 137.185 985.827 136.514 984.835 136.294C983.818 136.068 982.71 136.182 981.671 136.182C980.459 136.182 979.298 136.153 978.106 136.383C976.917 136.612 975.982 137.129 975.221 138.087C974.588 138.884 973.927 139.624 973.294 140.432C972.672 141.227 971.602 141.706 970.837 142.354C970.465 142.669 970.074 142.987 969.668 143.251C969.138 143.595 968.369 144.039 967.779 144.225C966.972 144.48 966.319 145.206 965.423 145.206C964.919 145.206 964.977 144.739 964.771 144.342C964.468 143.757 964.369 143.078 964.047 142.499C963.659 141.8 961.753 143.564 961.507 144.002C960.888 145.11 960.468 145.607 959.112 145.607C958.284 145.607 957.864 145.466 957.241 144.899C956.349 144.088 955.344 144.408 954.344 143.98C953.514 143.624 953.677 141.518 953.748 140.8C953.79 140.385 955.09 137.678 954.272 137.486C953.619 137.332 953.237 137.15 952.634 137.547C952.141 137.872 951.728 138.227 951.359 138.689C951.109 139.001 951.038 139.403 950.791 139.714C949.93 140.796 948.891 142.09 947.777 142.861C947.491 143.059 947.282 143.281 946.975 143.451C946.717 143.595 946.363 143.724 946.223 144.002M946.177 143.657C945.543 143.948 944.851 144.357 944.133 144.357H943.353C943.032 144.357 942.71 144.411 942.383 144.411C941.801 144.411 941.223 144.68 940.63 144.68C939.77 144.68 938.905 144.974 938.048 145.06C937.902 145.075 937.76 145.138 937.626 145.195C937.492 145.251 937.431 145.381 937.291 145.422C937.069 145.487 936.829 145.704 936.687 145.889C936.441 146.207 936.101 146.463 935.942 146.834C935.78 147.213 935.721 147.601 935.592 147.989C935.487 148.304 935.345 148.636 935.221 148.946C935.062 149.344 934.945 149.769 934.772 150.161C934.644 150.453 934.396 150.689 934.225 150.957C933.949 151.388 933.745 151.66 933.363 152.004C932.694 152.606 931.847 153.032 930.991 153.326C930.563 153.473 930.144 153.65 929.698 153.739C929.214 153.836 928.76 154.03 928.256 154.05C927.93 154.063 927.602 154.05 927.275 154.05C926.806 154.05 926.348 154.064 925.881 154.107C925.645 154.128 925.49 154.267 925.28 154.319C924.979 154.394 924.8 154.612 924.583 154.792C924.398 154.945 924.301 155.144 924.128 155.301C923.929 155.479 923.732 155.665 923.559 155.869C923.209 156.284 922.852 156.661 922.428 157C922.027 157.321 921.731 157.721 921.31 158.023C921.069 158.195 920.802 158.36 920.574 158.547C920.38 158.705 919.999 158.627 919.763 158.627C919.234 158.627 918.809 158.048 918.456 157.7C917.924 157.176 917.775 156.567 917.45 155.911C917.176 155.358 916.936 154.777 916.634 154.238C916.301 153.645 915.842 153.182 915.404 152.674C915.046 152.258 914.802 151.842 914.195 151.842C913.709 151.842 913.333 151.826 912.894 152.061C912.07 152.5 911.509 153.179 911.108 153.996L911.096 154.019C910.875 154.471 910.689 154.849 910.689 155.366C910.689 155.925 910.538 156.398 910.393 156.931C910.112 157.96 909.473 158.853 909.073 159.83C908.891 160.277 908.746 160.69 908.493 161.104C908.314 161.399 908.178 161.718 908.038 162.032C907.948 162.234 907.784 162.401 907.727 162.615C907.667 162.842 907.566 163.077 907.458 163.285C907.064 164.046 906.559 164.798 905.947 165.41C905.245 166.112 904.215 166.867 903.18 166.867H902.477C902.154 166.867 901.907 166.673 901.645 166.49C901.314 166.258 901.046 166.005 900.78 165.712C900.395 165.286 900.065 164.658 899.542 164.389C899.352 164.292 899.164 164.286 898.962 164.228C898.669 164.144 898.394 163.994 898.106 163.893C897.821 163.793 897.572 163.595 897.274 163.54C897.021 163.493 896.44 163.445 896.203 163.564C895.502 163.914 895.022 164.745 894.911 165.493C894.788 166.319 894.977 167.244 895.521 167.896C895.76 168.181 896.006 168.47 896.287 168.715C896.51 168.91 896.654 169.17 896.885 169.356C897.594 169.925 898.443 170.235 899.165 170.777C899.46 170.998 899.745 171.261 900 171.528C900.451 172.001 900.99 172.359 901.451 172.82C901.817 173.187 902.146 173.59 902.528 173.942C902.644 174.049 902.766 174.116 902.857 174.247C903.086 174.581 903.467 175.001 903.79 175.234C904.026 175.405 903.994 175.921 904.018 176.177C904.038 176.402 904 176.575 903.916 176.775C903.858 176.912 903.88 177.059 903.808 177.206C903.67 177.487 903.587 177.777 903.473 178.068C903.148 178.898 902.698 179.671 902.399 180.512C902.149 181.216 901.815 182.376 902.39 182.992C902.499 183.109 902.591 183.109 902.719 183.195C903.024 183.401 903.31 183.635 903.611 183.848C904.069 184.172 904.571 184.423 905.035 184.739C905.621 185.139 906.14 185.616 906.716 186.025C907.02 186.242 907.726 186.567 907.661 187.043C907.62 187.349 907.441 187.596 907.35 187.868M907.051 187.681C906.939 188.921 906.826 190.114 906.698 191.329C906.671 191.588 906.463 191.761 906.463 192.036C906.463 192.258 906.508 192.479 906.371 192.65C906.162 192.912 906.345 193.958 906.345 194.272C906.345 194.755 906.085 195.278 905.999 195.75C905.816 196.753 905.628 197.955 905.103 198.856C904.676 199.588 904.238 200.844 903.403 201.308C902.563 201.775 902.178 202.276 901.166 202.276C900.493 202.276 900.076 202.009 899.453 201.831C898.659 201.604 897.904 201.487 897.223 201.046C896.032 200.276 894.34 200.039 892.927 200.039C892.459 200.039 891.982 200.013 891.514 200.039C891.209 200.056 890.894 200.421 890.632 200.563C890.262 200.762 890.055 200.648 889.801 201.046C888.815 202.597 888.555 204.473 888.33 206.271C888.224 207.12 888.083 207.955 887.924 208.808C887.717 209.93 887.786 211.052 887.539 212.163C887.353 212.999 887.49 213.895 887.042 214.661C886.394 215.766 886.11 216.693 884.949 217.434C883.32 218.474 881.258 219.177 879.45 219.873C878.421 220.268 877.245 220.645 876.154 220.226C875.45 219.955 874.312 220.167 873.571 220.167C872.658 220.167 871.786 220.136 870.89 220.311C870.128 220.46 869.383 220.467 868.654 220.729C867.862 221.014 867.092 221.241 866.273 221.514C864.615 222.067 863.315 223.2 861.735 223.96C861.22 224.207 860.679 223.984 860.205 224.195C859.926 224.319 859.753 224.462 859.453 224.529C859.35 224.551 859.082 225.236 859.002 225.346C858.211 226.429 857.846 227.354 857.524 228.642C857.315 229.48 857.242 230.356 856.968 231.179C856.796 231.694 856.767 232.208 856.556 232.735C856.375 233.187 856.257 233.634 856.144 234.108C856.014 234.657 855.728 235.092 855.471 235.586C855.264 235.984 855.053 236.686 854.614 236.881C854.405 236.974 854.382 237.299 854.202 237.469C853.989 237.672 853.69 237.741 853.437 237.881C853.106 238.066 852.338 237.96 851.966 237.94C850.568 237.867 849.412 236.679 848.343 235.939C847.918 235.645 847.462 235.233 846.905 235.233C846.471 235.233 845.624 235.333 845.374 235.769C845.177 236.115 844.93 236.221 844.786 236.646C844.614 237.152 844.393 237.538 844.145 237.999C843.982 238.302 843.974 239.017 843.962 239.353C843.942 239.884 843.955 240.632 843.818 241.144C843.53 242.224 843.727 243.562 843.727 244.676C843.727 246.082 843.458 247.878 843.968 249.24C844.478 250.598 844.948 252.002 845.557 253.307C845.924 254.092 846.046 255.022 846.493 255.766C846.741 256.18 846.859 256.672 847.022 257.126C847.228 257.701 847.702 258.136 847.853 258.715C847.982 259.211 848.668 259.811 849.023 260.186C849.464 260.651 849.905 261.271 850.436 261.625C851.008 262.006 851.568 262.757 852.084 263.247L852.098 263.26C853.315 264.416 854.649 265.684 855.405 267.196C855.539 267.463 855.918 267.783 855.961 268.086C856.034 268.592 856.016 269.131 856.112 269.629C856.339 270.814 857.027 271.972 857.027 273.199C857.027 274.832 856.794 276.331 856.445 277.901C856.244 278.805 855.922 279.708 855.333 280.477C854.963 280.962 854.681 281.547 854.32 282.053C854.168 282.266 853.557 282.517 853.326 282.668C852.315 283.329 850.93 283.407 849.847 283.871C848.754 284.34 847.756 284.669 846.552 284.669H842.196M841.67 285.29C840.922 285.819 840.361 286.156 839.965 286.905C839.899 287.031 839.629 287.522 839.536 287.597C839.385 287.718 839.314 288.064 839.183 288.232C838.933 288.553 838.671 288.742 838.465 289.097C838.297 289.388 837.768 289.818 837.491 290.02C837.091 290.312 836.675 290.529 836.318 290.885C835.373 291.83 833.857 292.829 832.626 293.417C831.602 293.907 830.671 294.578 829.582 294.955L829.489 294.988C828.436 295.352 827.177 295.788 826.07 295.788C824.421 295.788 822.786 295.904 821.134 295.904C820.297 295.904 819.576 295.851 818.763 295.647C818.247 295.518 817.741 295.272 817.206 295.218C812.222 294.72 807.334 293.25 802.278 293.25H798.292C797.528 293.25 796.839 293.218 796.125 293.455C795.669 293.607 795.625 293.669 795.433 294.148C795.337 294.387 794.971 294.607 794.831 294.923C794.481 295.71 794.012 296.489 793.613 297.231C793.055 298.267 792.726 299.515 792.062 300.493C791.515 301.298 791.253 302.284 790.729 303.108C790.323 303.746 789.827 304.052 789.293 304.556C788.556 305.253 787.618 305.65 786.729 306.172C785.734 306.755 784.197 306.42 783.352 305.832C782.959 305.559 782.189 305.178 781.743 305.018C781.349 304.877 780.629 304.441 780.23 304.441C779.07 304.441 777.995 304.601 777.269 305.569C777.144 305.736 777.14 305.979 777.057 306.172C776.953 306.415 776.532 306.657 776.308 306.8C775.893 307.063 775.438 307.094 774.962 307.094C774.279 307.094 773.487 306.55 772.795 306.377C772.403 306.279 772.163 306.172 771.751 306.172H771.729C770.95 306.171 769.796 306.171 769.796 307.268C769.796 307.951 769.213 308.708 768.873 309.261C768.702 309.538 768.488 309.681 768.296 309.921C768.199 310.042 768.213 310.091 768.155 310.235C768.05 310.496 767.588 310.665 767.399 310.902C766.891 311.537 765.997 312.239 765.232 312.517C764.434 312.807 764.039 312.922 763.681 313.728C763.271 314.65 762.645 315.389 761.976 316.119C761.782 316.33 761.743 316.634 761.54 316.837C761.282 317.095 761.039 317.099 760.912 317.478M760.682 317.478C755.881 320.432 750.389 319.9 745.043 319.9C743.996 319.9 742.831 320.006 741.813 319.721C740.692 319.407 739.67 319.208 738.505 319.208C737.768 319.208 736.644 318.99 735.993 319.388C735.605 319.625 735.143 319.881 734.788 320.157C734.304 320.533 733.692 320.733 733.25 321.144C732.139 322.175 730.197 323.005 728.68 323.137C727.987 323.197 727.209 323.181 726.533 323.336C725.584 323.552 724.545 323.246 723.597 323.246C721.672 323.246 719.745 323.106 717.803 323.131C716.303 323.149 714.996 323.749 713.663 324.336C713.01 324.623 712.398 325.053 711.74 325.297C709.838 326.002 708.074 326.724 706.004 326.931C704.359 327.096 702.663 326.822 701.036 326.822C699.652 326.822 697.979 327.101 696.678 326.592C695.967 326.313 695.244 325.899 694.461 325.899C693.697 325.899 692.392 325.63 691.692 325.925C690.42 326.46 689.913 328.519 689.5 329.655C689.159 330.591 688.4 331.544 687.859 332.386C687.613 332.769 686.811 333.515 686.327 333.623L686.281 333.633C685.675 333.768 685.181 333.878 684.539 333.86C683.642 333.835 682.942 333.254 682.238 332.77C681.378 332.179 680.481 331.194 679.95 330.309C679.34 329.293 678.528 328.426 677.854 327.457C677.403 326.809 677.136 326.003 676.758 325.316C676.233 324.361 675.832 323.305 675.425 322.297C674.331 319.591 673.918 316.678 672.887 313.927C672.602 313.169 672.458 312.289 672.336 311.478C672.177 310.43 672.557 309.503 673.053 308.601C673.937 306.994 674.963 305.369 674.963 303.512C674.963 302.552 674.627 301.652 673.816 301.044C673.26 300.627 672.639 300.606 671.964 300.544C671.013 300.457 670.169 300.264 669.233 300.057C668.401 299.873 667.564 299.75 666.715 299.705C665.892 299.66 665.172 299.118 664.356 298.967C663.434 298.798 662.407 298.557 661.465 298.557C660.626 298.557 660.149 299.151 659.453 299.506C658.651 299.914 657.471 299.784 656.735 299.301C656.189 298.942 655.625 298.95 655.056 298.673C654.308 298.308 653.613 298.102 652.8 297.891C652.119 297.714 651.366 297.439 650.723 297.154C650.268 296.951 649.867 296.659 649.377 296.532C649.023 296.44 648.698 296.402 648.384 296.199C647.96 295.925 647.343 295.847 646.865 295.673C645.831 295.297 644.993 294.707 644.109 294.085L644.07 294.058C643.481 293.643 643.386 292.78 643.064 292.154C642.592 291.234 642.333 290.251 641.186 290.251C640.42 290.251 639.74 290.164 638.994 289.994C638.51 289.884 637.357 289.423 637.059 289.039C636.552 288.388 635.85 287.847 635.559 287.02C635.17 285.915 634.622 284.735 634.476 283.566C634.337 282.453 633.869 281.649 633.085 280.906C632.703 280.545 632.247 280.298 631.873 279.925C631.614 279.666 631.465 279.6 631.124 279.47C630.664 279.296 630.204 278.547 629.88 278.188C629.28 277.524 628.835 277.528 628.06 277.676C626.938 277.889 625.815 277.916 624.689 278.112C622.335 278.521 620.001 278.253 617.626 278.253M619.01 278.368C618.177 278.116 617.309 277.725 616.446 277.586C615.967 277.509 615.472 277.504 614.998 277.419C614.524 277.335 614.017 277.386 613.562 277.24C612.717 276.968 611.755 276.766 610.876 276.631C610.13 276.516 609.448 276.291 608.685 276.291C607.381 276.291 605.982 276.426 604.704 276.15C602.394 275.651 599.909 276.207 597.66 275.42C596.397 274.977 595.372 273.651 594.437 272.715C594.214 272.492 594.079 272.294 593.924 272.023C593.752 271.721 593.328 271.635 593.193 271.305C592.919 270.631 592.289 269.933 591.681 269.542C591.197 269.232 590.886 268.526 590.508 268.1C589.861 267.373 589.172 267.001 588.399 266.434C587.438 265.729 586.255 265.447 585.041 265.447C584.286 265.447 583.255 265.259 582.554 265.562C582.004 265.8 581.454 265.664 580.913 265.818C579.506 266.22 578.115 266.63 576.952 267.581C576.018 268.345 574.868 268.822 573.908 269.542C573.644 269.74 573.557 269.952 573.222 270.119C572.905 270.278 572.553 270.615 572.305 270.863C571.824 271.344 571.243 271.698 570.761 272.164C570.114 272.788 569.379 273.317 568.594 273.753C567.741 274.227 567.063 274.98 566.172 275.426C565.051 275.986 563.369 276.298 562.134 275.971C561.044 275.682 559.862 274.024 558.557 274.676C557.594 275.158 556.675 275.779 555.788 276.349C554.072 277.452 552.24 278.011 550.257 278.419C549.345 278.607 548.534 278.705 547.642 279.002C546.653 279.332 545.752 279.777 544.854 280.304C544.172 280.704 543.32 280.791 542.547 280.791C542.122 280.791 541.479 280.912 541.111 280.675C540.117 280.037 539.212 278.483 537.9 278.483C536.949 278.483 536.116 278.74 535.202 278.996L535.108 279.022C533.196 279.557 531.283 280.093 529.446 280.88C527.609 281.668 525.573 282.467 523.537 282.63C522.727 282.695 521.915 282.801 521.107 282.861C520.4 282.913 519.698 282.752 518.986 282.752C516.947 282.752 515.166 283.193 513.128 282.688C512.428 282.514 512.11 282.139 511.602 281.65C511.108 281.173 510.49 280.799 509.936 280.393C509.504 280.077 508.925 279.892 508.629 279.432C508.384 279.051 508.267 278.661 508.141 278.227C507.986 277.691 507.604 277.372 507.565 276.842C507.519 276.223 506.585 275.83 506.065 275.714C505.322 275.549 504.753 275.368 503.982 275.368C503.317 275.368 502.607 275.415 501.982 275.138C501.414 274.885 501 274.025 500.546 273.599C500.136 273.214 500.181 272.104 500.181 271.561V269.6C500.181 268.679 499.426 267.739 498.784 267.126C498.436 266.794 497.881 266.735 497.47 266.485C497.149 266.29 496.878 266.139 496.496 266.139C495.875 266.139 495.008 265.876 494.413 265.677M493.273 264.489C490.746 263.093 488.515 261.335 486.005 259.94C485.129 259.453 484.507 258.518 483.637 257.948C482.635 257.294 481.353 256.823 480.487 255.956C479.453 254.922 478.732 253.122 477.338 252.565C476.565 252.256 475.757 250.092 475.346 249.416C474.617 248.214 473.86 246.719 473.354 245.405C472.598 243.438 470.702 241.714 470.245 239.658C469.809 237.694 468.296 235.749 467.072 234.177L467.002 234.086C465.278 231.871 465.593 228.954 464.808 226.442C464.054 224.029 463.471 221.187 462.13 219.08C460.935 217.202 461.538 213.846 461.538 211.624C461.538 210.3 461.642 208.627 462.076 207.371C462.431 206.346 462.991 205.548 462.991 204.41C462.991 202.166 461.463 200.11 459.896 198.542C457.969 196.615 455.33 196.558 452.709 196.416C449.741 196.256 447.457 195.168 445.186 193.401C444.449 192.829 441.983 193.267 441.081 193.267H438.174C436.671 193.267 435.378 192.664 434.15 191.948C433.25 191.423 432.117 191.187 431.068 190.898C429.986 190.6 429.245 191.054 428.295 191.383C426.533 191.992 423.349 191.762 421.997 190.656C421.452 190.21 419.811 190.117 419.143 190.117C418.028 190.117 417.537 190.217 416.963 191.221C415.975 192.95 412.883 193.267 411.163 193.267C410.066 193.267 408.805 193.448 407.852 193.025C406.825 192.568 405.155 191.571 404.016 191.571C401.772 191.571 398.738 190.867 396.735 189.754C395.972 189.33 395.201 189.391 394.313 189.391C393.434 189.391 391.541 188.51 390.935 187.937C390.236 187.277 389.61 186.511 389.05 185.811C388.511 185.136 388.714 184.339 388.431 183.523C388.193 182.836 387.963 181.849 387.516 181.275C387.174 180.836 387.183 180.146 386.87 179.754C386.581 179.394 385.759 178.136 385.713 177.763C385.628 177.083 384.885 176.365 384.448 175.878C383.823 175.184 383.485 174.324 382.806 173.644C381.888 172.727 380.696 172.344 379.764 171.464C379.271 170.998 377.733 170.881 376.991 170.616C374.853 169.852 372.747 170.01 370.451 170.01C369.419 170.01 367.884 170.317 366.938 170.737C365.79 171.248 364.376 171.264 363.304 171.841C362.612 172.214 361.16 172.918 360.397 172.918C359.319 172.918 359.274 174.155 358.473 174.613C358.229 174.752 357.507 176.55 357.369 176.928C356.985 177.983 356.377 179.131 355.619 179.889C354.934 180.574 354.811 181.504 353.735 181.639C352.727 181.765 352.11 183.092 350.828 183.092C349.618 183.092 348.734 183.14 347.679 182.554C346.531 181.916 345.564 180.708 344.664 179.808C344.211 179.355 343.742 177.567 343.439 176.901C343.028 175.996 342.923 175.064 342.47 174.25C342.06 173.51 342.016 172.748 341.488 172.07C340.558 170.874 339.748 168.578 338.231 168.072M337.747 167.346C336.822 166.421 335.914 166.047 335.082 165.165C334.3 164.338 333.562 163.696 332.713 162.931C331.784 162.095 330.891 161.338 329.752 160.859C328.847 160.477 327.974 159.589 326.966 159.365C325.905 159.129 325.161 158.437 324.046 158.14C322.745 157.793 321.77 157.614 320.789 156.687C320.285 156.211 319.438 155.767 318.851 155.421C318.049 154.95 317.266 154.229 316.549 153.672C314.818 152.325 312.485 152.326 310.356 152.326L310.237 152.326C309.137 152.326 308.436 152.368 307.586 151.707C306.709 151.025 305.907 149.771 305.042 149.231C304.087 148.633 303.879 147.287 303.104 146.512C302.457 145.864 301.749 145.377 301.153 144.682C300.502 143.922 299.365 143.656 298.865 142.757C298.525 142.146 297.002 141.693 296.375 141.129C295.793 140.604 294.428 140.456 293.657 140.456C292.465 140.456 291.866 140.55 290.992 141.425C289.681 142.735 288.812 145.421 288.583 147.252C288.421 148.546 288.213 151.165 288.704 152.286L288.723 152.331C289.066 153.115 289.846 154.898 290.507 155.287C291.528 155.887 291.879 156.847 292.688 157.656C293.647 158.615 294.673 160.059 295.218 161.303C295.758 162.538 295.837 163.486 295.837 164.829C295.837 166.514 296.079 168.131 296.079 169.822C296.079 171.312 295.517 172.488 295.352 173.887C295.297 174.36 293.588 175.758 293.307 175.838C292.553 176.053 292.3 178.532 292.216 179.203C292.109 180.06 292.197 182.146 291.665 182.796C290.598 184.1 288.214 185.54 287.842 187.21C287.34 189.471 286.44 191.68 284.572 193.132C283.759 193.765 281.786 194.734 281.786 195.81C281.786 196.614 281.15 197.497 280.629 198.058C280.065 198.665 280.129 199.546 279.364 199.996C278.958 200.235 278.768 200.627 278.516 201.019C278.157 201.577 277.637 201.776 277.183 202.23C276.156 203.257 275.204 203.939 273.899 204.531C272.785 205.038 271.988 205.137 270.764 205.137C269.263 205.137 268.865 205.955 267.978 206.941C266.785 208.265 266.391 209.836 265.367 211.274C264.387 212.651 263.167 213.368 261.975 214.531C260.759 215.719 259.914 216.023 259.445 217.546C258.879 219.386 258.889 220.977 259.607 222.822C259.901 223.578 259.848 224.464 260.037 225.244C260.247 226.106 260.749 226.933 260.939 227.788C261.163 228.798 258.199 230.39 257.507 230.816C256.2 231.62 255.08 232.618 253.631 233.238C252.458 233.741 251.164 234.497 250.186 235.298C249.393 235.946 248.089 236.675 247.857 237.72C247.617 238.803 246.439 238.81 245.569 238.81C244.88 238.81 243.892 236.769 243.376 236.253C242.533 235.41 241.91 234.368 240.845 233.777C239.496 233.027 237.933 232.996 236.35 232.996C235.148 232.996 235.14 233.883 234.439 234.584C234.142 234.881 234.387 235.305 234.008 235.607C233.613 235.924 233.161 235.729 232.743 236.267C231.923 237.321 230.586 237.532 230.671 239.053C230.743 240.345 233.966 242.309 231.761 243.534C229.778 244.636 227.664 245.488 225.341 245.351C225.086 245.336 224.546 245.027 224.285 244.878L224.265 244.867C223.942 244.682 223.25 244.308 222.973 244.086C222.398 243.627 221.695 242.47 221.344 241.838C220.818 240.891 220.946 239.971 220.496 238.958C220.132 238.14 219.543 237.623 219.043 236.872M218.074 237.599C216.624 236.545 214.021 236.388 212.26 236.388C211.473 236.388 210.933 235.837 210.2 235.674C209.334 235.482 207.773 235.321 207.172 234.571C206.688 233.965 206.031 233.583 205.476 232.996C204.975 232.465 204.491 231.917 203.781 231.664C202.735 231.29 202.091 230.574 200.927 230.574H197.428C196.356 230.574 195.563 230.629 194.696 229.955C194.129 229.514 192.639 229.096 192.341 228.636C191.916 227.979 190.745 227.605 190.08 227.303C189.67 227.117 189.246 227.114 188.855 226.94C188.178 226.639 187.519 226.314 186.81 226.092C185.702 225.746 184.794 225.285 183.62 225.056C182.308 224.799 180.889 225.076 179.555 225.002C178.039 224.918 176.227 223.442 174.831 222.822C173.38 222.176 171.476 220.025 170.834 218.582C170.114 216.962 169.792 215.208 169.085 213.616C167.628 210.339 167.629 206.504 167.443 202.957C167.332 200.849 166.958 198.81 166.958 196.658C166.958 195.349 167.464 192.578 166.837 191.45C166.478 190.804 166.401 189.928 165.505 189.875C164.646 189.825 163.815 188.998 163.082 188.61C161.422 187.731 159.292 186.484 157.389 186.484C156.079 186.484 154.728 186.078 153.392 185.999C153.257 185.991 151.738 184.75 151.71 184.653C151.052 182.352 149.032 180.566 149.032 178.005C149.032 176.107 150.466 174.625 151.266 173.025C152.225 171.107 153.15 168.183 153.15 166.027C153.15 165.383 153.358 164.301 153.096 163.712C152.619 162.639 151.849 161.24 151.683 160.078C151.431 158.316 149.949 156.854 150.539 154.937C151.27 152.56 152.535 150.768 153.755 148.571C154.527 147.183 154.909 143.986 154.065 142.636C153.826 142.253 153.258 142.422 152.881 142.38C151.679 142.247 150.554 141.631 149.368 141.425C148.07 141.199 146.94 140.777 145.694 140.509C142.841 139.898 139.706 137.967 137.538 136.109C136.165 134.932 134.28 133.842 133.151 132.273C132.174 130.916 131.366 129.639 130.513 128.087C129.48 126.21 128.732 125.361 127 124C126.504 123.61 125.984 123.449 125.5 123C124.799 122.349 123 122 123 122C121.847 122 119.5 121.5 119.5 121.5C118.803 121.459 117.397 120.505 117 120C115.774 118.44 114.224 117.131 113 115.601C111.37 113.563 108.5 113 108.5 110C108.5 108.578 112.5 106 112.5 104C112.5 102.338 103.145 99.1409 102 99.1409C101.073 99.1409 96.1885 100.5 93.5 100.5C92.1531 100.5 88.5 105.5 87.5 107C86.8056 107.025 83.3076 112.255 82.9819 112.842C82.3714 113.941 81.5 114.329 81.5 115.601C81.5 116.389 79.987 118.391 79.5 119C78.9208 119.724 78.1318 123.359 77.5 123C75.9648 122.128 73.5407 120.149 72 119.5C70.4928 118.865 69.2346 117.129 68.5 116.825C66.5 116 66.5 116 65 115.601C64 115 63.5 114.5 63 114.5C62.3269 115.173 62.5 114 60.5 115C59.6574 115.421 60.5 115 59.1334 116C58.5 116 58.5 116 57.5 116.825C57 116.825 56.5 117.5 55.5 118C54.5 119 53.8448 119.655 52.5 121C50 123.5 48 124 45 124C43 124 40.9329 126.322 39 126C37.381 125.73 36.5 123.5 36 122C35.5 119 37.7201 119.574 39.3898 117.5C41 115.5 41.3 114.5 42.5 112.5C44 110 45.5 107 46.2806 105.5C47.5 103.5 49 101.359 49.5 99.6793C50 98 51 96.1187 51.5 94.3093C52 92.5 52.0628 92.186 52.5 90C53 87.5 52.5 87.5 53 85C53.5 82.5 56.3907 81.7678 57.5 80.5C58 79.9286 58 78.5 58 76.5C58 74 58 74.5 57 71C56.5 69.25 56.097 69.306 56.5 68.5C56.5 66.5 57 65.5 58 64.5C59 63.5 59.9104 62.1792 61.5 59C62.4595 57.0809 64.3001 55.5219 65 53.5C65.4278 52.2642 66 48.7995 66 47.5C66 46.5204 67.5 44 68 42.5C68.5 41 69.435 41.4995 70.7504 39.7831C72.5 37.5 73.5 37 74.5 34.5C75.0484 33.1291 75.6336 31 75.5 28.5C75.3664 26 75.3003 24.5765 75 23C74.6336 21.0765 74 21.5 74 19.5C74 18 74 19 74 17.5C74 16 74 19.4208 74 16.5C74 14.7259 74.298 14.0959 74 13.5C73.5 12.5 71.9312 11.9312 71.5 11.5C70.5 10.5 71.5 11.5 70 9.99999C69.5 8.99999 67.399 8.39896 66.5 7.49999C65 5.99999 65 5.99999 65 4.99999C65 3.99999 55.5487 3.73303 54.5 3.49999C53.2622 3.22492 51 7.5 49.5 8.99999C48.6243 9.8757 48.5 12.5 48.5 13C48.5 15 48.5 15.5 48 18C47.5 20 48 19.5 47.5 21.5C47.3341 22.1635 47.5 24 47 24C46.5 24.5 45 26.5 44 26C43.5 26 41 26 40 26C38.5 26 38.5 26 37 26C36 26 36.5 26 35.3792 25.5C34 25 34.5 25 33 25C32.5 25 32.5 25 31.5 25C30.5 24.5 30 23.5 29 23C28.443 22.7215 27.4136 22.983 27 23.5C26.5 24 26 25 26 25.5C25 28 26 26 25 28C24.7087 29.5291 24.3352 30.6098 23 31.5C22.2023 32.0318 20.8305 33 19.8616 33C19.1865 33 16.482 33.6377 16 33.5C15.4885 33.3538 15.0397 32.5 14.5 32.5C13.4398 32.5 13.4669 31.1487 12.5 31C11.9648 30.9176 11.9539 30.2604 11.5 30C10.9318 29.674 10.0781 29.289 9.5 29C8.58174 28.5409 8.47065 28.3347 7.5 28C6.88651 27.7884 5.24047 26.9494 6 26C7.42793 24.2151 3.58808 24.7202 2.5 22" stroke="#4974AD" stroke-width="5" stroke-linecap="round"/>
</svg>
