<svg width="206" height="117" viewBox="0 0 206 117" fill="none" xmlns="http://www.w3.org/2000/svg">
<path d="M203.033 2.71906C203.407 5.33108 200.111 7.99858 198.341 9.41457C196.592 10.8137 193.442 10.3277 191.409 10.0736C190.964 10.0181 190.714 9.48527 190.328 9.37503C189.819 9.22968 188.966 9.12461 188.443 9.12461C187.667 9.12461 186.975 9.33367 186.242 9.36185C185.567 9.3878 185.183 9.75932 184.528 9.83634C183.457 9.96241 182.276 10.0736 181.088 10.0736C179.184 10.0736 178.792 10.9231 177.754 12.4328C176.842 13.7599 176.763 15.0345 176.04 16.4791C175.341 17.8782 174.807 18.8465 173.721 19.9323C172.472 21.1815 171.659 21.988 170.057 22.7002C169.317 23.0287 168.987 22.6474 168.277 22.6474C167.249 22.6474 166.221 22.6474 165.193 22.6474C163.392 22.6474 162.778 23.4135 161.279 24.1236C160.553 24.4673 159.939 24.8626 159.249 25.2571C158.937 25.4352 159.011 25.8578 158.761 25.9688C158.208 26.2149 157.78 26.5471 157.391 27.0233C156.557 28.042 156.021 29.0922 155.348 30.1865C154.679 31.2731 153.532 31.8819 152.553 32.6644C150.36 34.419 148.348 36.0563 146.57 38.2527C145.22 39.9201 144.213 41.7303 143.116 43.5248C142.605 44.3613 142.483 44.9303 142.537 45.8972C142.588 46.8216 143.788 47.5948 144.013 48.5596C144.276 49.691 145.41 50.6095 145.607 51.6965C145.716 52.2906 146.485 53.2523 146.319 53.8317C146.106 54.5784 143.616 54.4484 143.064 55.3869C142.53 56.2948 141.736 56.9256 141.008 57.6539C140.518 58.1433 140.408 59.1741 139.927 59.7759C138.572 61.47 137.956 63.7375 136.355 65.338C133.459 68.2335 133.047 72.9639 133.047 76.8442C133.047 78.0405 133.476 79.0783 133.521 80.2447C133.534 80.5726 134.038 82.2579 134.233 82.3799C134.54 82.5715 134.571 82.8512 134.76 83.1443C134.95 83.4376 135.649 83.7436 135.946 84.0406C136.809 84.9028 137.624 85.7819 138.319 86.6503C138.665 87.0834 138.586 88.2495 138.49 88.825C138.431 89.1802 136.722 89.4862 136.368 89.5367C135.51 89.6593 133.296 89.8637 132.625 89.2599C132.072 88.7624 131.975 87.7909 131.505 87.1643C130.602 85.961 130.351 86.231 128.882 86.9402C127.98 87.3757 125.849 87.6934 125.218 88.4823C124.733 89.0878 123.395 87.8909 122.977 87.652C122.706 87.4968 122.534 86.7988 122.424 86.5185C122.215 85.9885 121.815 85.842 121.475 85.4641C121.086 85.0322 121.11 83.6861 121.237 83.1443C121.432 82.3185 121.895 81.3001 121.646 80.4292C121.502 79.924 119.465 80.5347 119.142 80.5347C117.904 80.5347 117.408 79.9471 116.624 79.1639C116.304 78.8433 115.488 77.7446 114.964 77.9777C113.355 78.6928 112.407 82.4704 112.407 84.1065C112.407 85.2643 111.951 86.2577 111.932 87.4674C111.911 88.796 111.481 88.9868 110.799 89.8399C109.44 91.5377 109.323 93.2341 109.323 95.481C109.323 96.556 109.238 97.6488 109.507 98.6969C109.801 99.8388 110.271 100.734 110.271 101.939C110.271 102.952 110.522 103.966 109.797 104.733C109.104 105.467 108.241 105.847 107.662 106.684C107.023 107.607 106.713 107.682 106.713 108.925C106.713 109.799 107.222 112.438 106.357 112.918C105.436 113.43 101.966 114.552 101.072 113.459C100.179 112.368 95.9197 105.199 94.139 107.87C93.7083 108.516 92.9008 109.225 92.7155 109.966C92.4371 111.08 92.05 111.342 91.1603 111.851C89.7161 112.676 88.2651 112.011 87.6807 110.375C86.9578 108.35 85.9939 106.335 85.1238 104.378C84.2835 102.487 80.8088 101.4 78.9686 100.595C78.2597 100.285 78.0566 99.4826 77.7165 98.8024C77.1089 97.5872 77.1406 97.6645 75.924 96.9571C75.1006 96.4784 74.2856 96.0833 73.4725 95.5864C72.8248 95.1906 71.1459 94.1836 70.8892 93.4776C70.6366 92.7828 69.9624 92.2109 69.4658 91.6851C69.0432 91.2377 68.9459 89.4211 68.9913 88.7855C69.0636 87.7725 69.9825 87.1066 70.2961 86.2285C70.5739 85.4506 70.6814 83.2001 70.0457 82.5644C69.3541 81.8728 67.4593 82.1954 66.6188 82.1954C65.3682 82.1954 64.1809 82.1913 62.9548 82.3799C60.3876 82.7748 57.3283 80.9928 55.3498 79.4539C54.2276 78.581 54.2822 78.3384 54.2822 76.897C54.2822 76.0775 54.7984 75.8296 54.7567 75.0781C54.681 73.7163 52.0477 74.1684 51.2771 74.0764C50.061 73.9312 49.7081 73.6312 49.3528 72.4684C49.127 71.7293 48.6299 70.3332 47.758 70.3332C46.0751 70.3332 44.4803 71.045 42.7759 71.045C41.9523 71.045 40.1698 71.4404 39.7577 70.5705C39.1624 69.3137 39.0133 67.9177 38.6242 66.5901C37.7857 63.7292 37.327 60.9417 35.7509 58.3525C34.9093 56.9698 33.7106 55.7928 32.4559 54.807C31.4849 54.0441 30.4313 52.9644 29.3454 52.4214C28.003 51.7503 26.9714 51.4617 25.6286 51.0639C23.8608 50.5401 23.0454 48.1011 22.0172 46.6617C21.0783 45.3473 20.1901 44.2433 18.9989 43.1558C18.5702 42.7643 17.6459 41.6532 17.0351 41.6532C15.7067 41.6532 14.3438 41.8409 13.0415 42.1014C12.1943 42.2708 11.6442 42.8131 10.7613 42.8131C9.08519 42.8131 8.39167 42.3608 7.28179 41.2315C6.26186 40.1936 5.10433 39.0834 4.40852 37.831C4.02325 37.1375 3.06994 36.7412 2.80054 35.933" stroke="#4974AD" stroke-width="3" stroke-linecap="round"/>
</svg>
